<svg width="67" height="70" viewBox="0 0 67 70" fill="none" xmlns="http://www.w3.org/2000/svg">
<line x1="33.2407" y1="6" x2="33.2407" y2="64" stroke="#382B6A" stroke-width="2.48148"/>
<path d="M59 35H47" stroke="#382B6A" stroke-width="2.48148"/>
<path d="M20 35L8 35" stroke="#382B6A" stroke-width="2.48148"/>
<path d="M5.19141 13.146C3.96842 13.0614 2.98454 12.672 2.23975 11.978C1.49495 11.2798 1.12256 10.3975 1.12256 9.33105V8.15039C1.12256 7.07552 1.49284 6.19108 2.2334 5.49707C2.97819 4.80306 3.96419 4.41374 5.19141 4.3291V5.85254C4.41276 5.91602 3.80762 6.14665 3.37598 6.54443C2.94857 6.93799 2.73486 7.46908 2.73486 8.1377V9.36279C2.73486 10.0229 2.94857 10.5498 3.37598 10.9434C3.80339 11.3327 4.40853 11.5591 5.19141 11.6226V13.146ZM6.07373 11.6226C6.85238 11.5675 7.45329 11.3433 7.87646 10.9497C8.30387 10.5562 8.51758 10.0272 8.51758 9.36279V8.1377C8.51758 7.47331 8.30387 6.94222 7.87646 6.54443C7.44906 6.14665 6.84814 5.91602 6.07373 5.85254V4.3291C7.30094 4.40951 8.28271 4.79671 9.01904 5.49072C9.7596 6.1805 10.1299 7.06706 10.1299 8.15039V9.33105C10.1299 10.4144 9.76172 11.3009 9.02539 11.9907C8.28906 12.6805 7.30518 13.0656 6.07373 13.146V11.6226ZM16.0269 4.4751V13H14.4146V6.69678C14.0337 6.87874 13.5576 6.96973 12.9863 6.96973H11.5264V5.45898H12.853C13.3862 5.45898 13.7798 5.37858 14.0337 5.21777C14.2876 5.05697 14.4146 4.80941 14.4146 4.4751H16.0269Z" fill="#382B6A"/>
</svg>
