<svg width="72" height="23" viewBox="0 0 72 23" fill="none" xmlns="http://www.w3.org/2000/svg">
<g clip-path="url(#clip0_727_8374)">
<path d="M17.6773 5.76419C17.4852 5.95639 17.4852 6.24459 17.6773 6.38869C17.8695 6.58079 18.1577 6.58079 18.3018 6.38869C18.4939 6.19649 18.4939 5.90829 18.3018 5.76419C18.1096 5.57209 17.8214 5.57209 17.6773 5.76419Z" fill="#FEFEFE"/>
<path d="M22.0958 5.4761H20.1744L19.6941 6.0525C19.598 6.1485 19.646 6.1966 19.7421 6.2446L20.3667 6.5328L22.1439 5.7162C22.288 5.6682 22.2399 5.4761 22.0958 5.4761ZM14.9386 14.8909H12.5849C11.9604 15.2752 11.7683 15.3712 10.9517 15.7075C10.9037 15.7075 10.8556 15.8036 10.9037 15.8516L13.0172 21.7599H14.2181L12.2967 16.3319C13.5456 16.3319 16.5718 15.9957 18.205 13.3538C17.6766 14.1223 16.4757 14.8909 14.9386 14.8909ZM18.301 6.3887C18.1089 6.5809 17.8207 6.5809 17.6766 6.3887C17.4845 6.1966 17.4845 5.9084 17.6766 5.7643C17.8687 5.5721 18.1569 5.5721 18.301 5.7643C17.9168 5.38 17.2923 5.38 16.9561 5.7643C16.6198 6.1485 16.5718 6.725 16.9561 7.1092C17.3403 7.4935 17.9648 7.4935 18.301 7.1092C18.6373 6.725 18.6853 6.1485 18.301 5.7643C18.4452 5.9564 18.4452 6.1966 18.301 6.3887ZM13.6417 17.1485L15.2748 21.7599H16.4757L14.7465 16.9084C14.4583 17.0044 14.074 17.0525 13.6417 17.1485ZM15.2748 11.3843C15.419 11.1922 15.515 11.0001 15.6591 10.7599C15.6111 10.7119 15.5631 10.7599 15.515 10.8079C13.0652 13.4018 10.7115 13.7381 8.88625 13.7381H6.10025C6.00415 13.7381 5.95615 13.642 6.00415 13.5459C8.16575 10.5678 10.5194 8.214 12.2967 6.725L7.63735 10.6158C7.25305 10.904 6.82075 11.0961 6.24435 11.0961H0.384047C0.239947 11.0961 0.287947 11.2402 0.287947 11.3363C0.672247 12.5852 1.82515 13.7381 3.74655 13.7381L2.35345 15.1311C2.30545 15.1791 2.30545 15.3232 2.44955 15.3232H7.68535C11.4321 15.3232 13.7858 13.69 15.2748 11.3843Z" fill="#00985F"/>
<path d="M67.537 21.7598H71.812V8.5502H67.537V13.4017H63.502V8.5502H59.227V21.7598H63.502V16.7642H67.537V21.7598ZM16.9563 7.1092C16.5721 6.7249 16.5721 6.1485 16.9563 5.7642C17.3406 5.3799 17.9651 5.3799 18.3013 5.7642C18.6376 6.1485 18.6856 6.7249 18.3013 7.1092C17.917 7.4934 17.2926 7.4934 16.9563 7.1092ZM18.1572 13.3537C19.7904 10.7118 20.3668 6.5328 20.3668 6.5328L19.7424 6.2445C19.6463 6.1965 19.6463 6.1485 19.6943 6.0524L20.1747 5.476C19.8865 4.8996 18.8297 3.9389 17.2926 3.9389C16.3799 3.9389 15.5633 4.179 14.8428 4.6594C14.8428 4.6594 13.786 5.3799 12.2969 6.6769C10.5197 8.214 8.1659 10.5197 6.0044 13.4978C5.9563 13.5939 6.0044 13.69 6.1004 13.69H8.8865C10.7118 13.69 13.0655 13.3537 15.5153 10.7598C15.5633 10.7118 15.6114 10.7118 15.6594 10.7118C15.7074 10.7598 15.7074 10.8079 15.7074 10.8559C15.3231 11.8166 14.3624 13.69 12.5852 14.8428H14.9389C16.524 14.8428 17.6769 14.1223 18.1572 13.3537ZM15.7555 16.524L17.5808 21.7118H22.7686C21.7118 18.4934 20.559 15.5153 19.4541 12.7773C18.5895 14.6507 17.7729 15.5633 15.7555 16.524ZM0 21.7598H5.2358L7.0131 16.2358H1.9214C1.2969 17.869 0.6725 19.6943 0 21.7598ZM7.0611 9.8952L9.7031 7.7336C10.2795 6.1965 10.8559 4.6594 11.4323 3.3624C11.7205 4.0349 12.0087 4.7555 12.2969 5.476C13.738 4.2751 14.6507 3.5546 15.8515 3.2183C15.131 1.6332 14.6026 0.4803 14.3624 0H8.5022C8.0218 1.0568 6.1485 4.9476 3.9389 10.1834H6.0524C6.4847 10.1834 6.821 10.1354 7.0611 9.8952ZM39.4367 20.2707L39.7249 21.7118H43.1834V8.5502H38.9083V17.7249C38.524 18.1572 37.8035 18.6376 37.131 18.6376C35.9301 18.6376 35.3057 17.9651 35.3057 16.7162V8.5502H31.0306V17.7249C30.6463 18.1572 29.8297 18.6376 29.1092 18.6376C28.0044 18.6376 27.3799 17.9651 27.3799 16.7162V8.5502H23.1048V17.2926C23.1048 20.4629 24.4978 22.048 27.3799 22.048C29.4454 22.048 30.6943 21.2795 31.655 20.2707C32.3275 21.4716 33.5284 22.048 35.3057 22.048C37.3712 22 38.524 21.2795 39.4367 20.2707ZM53.0306 17.6769C52.6463 18.1092 52.0218 18.5895 50.9651 18.5895C49.8122 18.5895 49.1878 17.5328 49.1878 15.4672C49.1878 12.9214 49.8603 11.6725 51.2533 11.6725C52.0699 11.6725 52.4541 11.7205 53.0306 11.8646V17.6769ZM49.476 22H49.6201C51.5415 22 52.8384 21.3275 53.559 20.2707L53.7991 21.7118H57.306V9.0786C55.9127 8.6463 54.2795 8.262 51.3013 8.262C47.0262 8.262 44.7205 10.8559 44.7205 15.6594C44.7205 20.0786 46.3537 22 49.476 22Z" fill="#DC000F"/>
</g>
<defs>
<clipPath id="clip0_727_8374">
<rect width="71.812" height="22.048" fill="white"/>
</clipPath>
</defs>
</svg>
