<svg width="136" height="44" viewBox="0 0 136 44" fill="none" xmlns="http://www.w3.org/2000/svg">
<g clip-path="url(#clip0_727_8362)">
<path d="M30.7809 31.6247C30.7809 29.9291 32.9335 27.8303 37.428 27.8303C37.6956 27.8303 37.9649 27.8303 38.2342 27.8565C37.8849 31.1123 35.2966 33.3465 32.7719 33.3465C31.561 33.3465 30.7809 32.7818 30.7809 31.6247ZM22.0628 13.8116H22.1167L20.7262 26.6733C19.2104 26.2202 17.6635 25.8782 16.0979 25.65L22.0628 13.8116ZM12.3231 25.3824C8.98735 25.3824 5.48837 26.2163 3.68666 28.2073C2.60955 26.1886 2.20645 24.1437 2.20645 22.0188C2.20645 16.2873 5.94696 10.9589 13.131 7.56923L12.2154 5.63206C3.79437 9.45255 0 15.7487 0 22.0188C0 24.9776 0.700122 27.8303 2.55569 30.5476C2.50115 30.8497 2.47438 31.1562 2.47572 31.4631C2.47572 33.7479 3.90208 35.3913 6.86087 35.3913C9.96165 35.3913 12.5924 33.2698 14.1803 29.0674H11.8662C10.7091 31.8663 8.82578 33.3106 6.86087 33.3106C5.32681 33.3106 4.65443 32.6121 4.65443 31.455C4.65443 29.464 7.07629 27.4452 12.3509 27.4452C14.8788 27.4452 17.947 27.876 20.5026 28.7361L20.1257 32.2612H22.2783L24.297 13.3008C25.2387 13.056 26.9278 12.8928 28.0702 12.8928C32.8029 12.8928 34.0971 14.5607 34.0971 16.3624C34.0971 18.7581 32.1387 20.426 27.4239 20.9646L28.124 14.4791L25.9714 14.5607L24.0816 32.2694H26.2342L27.1758 23.3097C28.7825 22.877 30.4359 22.6419 32.0995 22.6096C35.2754 22.6096 37.428 23.9022 38.0726 25.8116C37.8585 25.7899 37.6432 25.7811 37.428 25.7855C31.3195 25.7855 28.6022 28.9058 28.6022 31.6508C28.6022 34.0727 30.3974 35.4175 32.7458 35.4175C36.1632 35.4175 39.8482 32.6741 40.3607 28.1796C41.9154 28.5444 43.4026 29.153 44.767 29.9829C41.0804 35.4452 33.6271 39.0241 24.6936 39.0241C20.3084 39.0241 14.8184 38.0825 11.1873 35.579L10.0563 37.3824C13.6352 39.9658 19.3668 41.1767 24.6936 41.1767C39.1971 41.1767 49.4215 32.6202 49.4215 22.045C49.4215 10.9328 38.3093 2.91481 24.7213 2.91481C23.8874 2.91481 23.295 2.94092 22.4871 2.99477L22.7026 5.11636C23.3554 5.08861 24.049 5.0625 24.6936 5.0625C36.829 5.0625 47.215 12.3803 47.215 22.0352C47.2215 24.1598 46.7431 26.2579 45.8164 28.1698C44.4439 27.282 42.4529 26.4758 40.3264 26.0711C39.8694 23.4876 37.743 21.2828 33.6352 20.8487C34.4389 20.4042 35.1093 19.7533 35.5775 18.9633C36.0457 18.1732 36.2946 17.2726 36.2987 16.3542C36.2987 13.0445 33.9584 10.8055 28.0653 10.8055C26.8842 10.8083 25.7053 10.9071 24.5402 11.1009L24.7834 8.84055L22.603 8.24977L20.7262 11.9821C17.6858 12.8699 14.7254 14.1608 12.9776 15.1563L13.9453 17.0135C15.7131 16.1073 17.5377 15.3163 19.4076 14.6455L13.9731 25.4362C13.4002 25.4085 12.8617 25.3824 12.3231 25.3824V25.3824ZM20.7458 6.14288C20.7458 3.80261 18.0808 1.70387 15.122 1.03149C14.8253 2.23838 14.6611 3.47403 14.6324 4.71652C14.6373 7.99681 16.3329 8.97601 17.9192 8.97601C19.6148 8.97601 20.7458 7.83362 20.7458 6.14288Z" fill="#63C634"/>
<path d="M66.6338 8.02938C64.93 8.02938 63.9573 8.88127 63.7615 10.151H61.3298C61.6448 7.28029 63.5917 5.84414 66.6338 5.84414C69.9173 5.84414 71.6929 7.49898 71.6929 10.8805V18.2538H69.2613V15.3276C68.6525 17.1049 67.3632 18.492 64.8549 18.492C62.5701 18.492 61.1323 17.2746 61.1323 15.0845C61.1323 12.3101 63.688 10.8266 69.2596 10.8266V10.6324C69.2613 8.88127 68.2886 8.02938 66.6338 8.02938ZM61.475 26.275H66.9748C69.6741 26.275 71.1593 27.4174 71.1593 29.4394C71.1593 30.7042 70.3808 31.7748 68.8239 32.1877C70.5995 32.4798 71.6945 33.4051 71.6945 35.0355C71.6945 36.6903 70.624 38.4414 67.2882 38.4414H61.475V26.275ZM65.4163 16.3982C67.923 16.3982 69.2613 14.6699 69.2613 12.5777C65.2466 12.5777 63.6896 13.5014 63.6896 14.9621C63.6896 15.8874 64.3457 16.3998 65.4163 16.3998V16.3982ZM68.6525 29.8523C68.6525 29.0004 68.1172 28.3443 66.8573 28.3443H63.8594V31.3341H66.8524C68.1172 31.3341 68.6525 30.6814 68.6525 29.8539V29.8523ZM63.8594 33.2925V36.3835H67.1446C68.6036 36.3835 69.1389 35.6769 69.1389 34.8021C69.1389 34.022 68.6036 33.2925 67.0173 33.2925H63.8594ZM73.7868 14.2587H76.3163C76.6085 15.5235 77.4359 16.3019 79.2849 16.3019C81.475 16.3019 82.0348 15.5235 82.0348 14.6471C82.0348 13.7952 81.4016 13.1636 79.7239 13.1636H77.6823V11.0224H79.3616C81.0899 11.0224 81.6464 10.4137 81.6464 9.51285C81.6464 8.61199 80.8908 7.88086 79.2604 7.88086C77.4359 7.88086 76.7798 8.80457 76.5611 9.80171H74.0299C74.2731 7.29988 76.2135 5.694 79.3143 5.694C82.7202 5.694 84.2103 7.2754 84.2103 9.12117C84.2103 10.4349 83.4563 11.53 82.0446 11.9184C83.626 12.2595 84.5987 13.3545 84.5987 14.7173C84.5987 16.6871 83.0417 18.4888 79.2947 18.4888C75.7337 18.492 74.0299 16.7638 73.7868 14.2587ZM74.0626 26.275H76.4942V31.7503L81.8227 26.275H84.7439L79.0989 32.0685L85.2058 38.4431H81.9255L76.4991 32.7311V38.4431H74.0675L74.0626 26.275ZM86.2763 43.308V40.9971C88.5872 40.9971 89.2449 40.3443 90.0723 38.386L85.1894 26.275H87.8659L91.391 35.1089L94.9128 26.275H97.3461L92.4322 38.5149C90.9961 42.0677 89.8765 43.3097 86.2763 43.3097V43.308ZM87.6064 15.7405C86.779 14.4512 86.5358 12.9417 86.5358 10.4855C86.5358 4.30518 88.677 1.70216 93.7867 0.995512C95.2229 0.802937 96.1711 0.652795 96.3408 0H98.7741C98.482 2.57854 96.5856 2.89514 94.1768 3.21175C90.0397 3.77152 88.943 5.42636 88.8712 9.30232C89.6758 7.39616 91.5542 6.08241 93.839 6.08241C97.2939 6.08241 99.4106 8.88127 99.4106 12.284C99.4106 15.7389 96.832 18.4855 92.9626 18.4855C90.4771 18.492 88.5562 17.2501 87.6064 15.7421V15.7405ZM96.8532 12.2856C96.8532 9.9747 95.2474 8.27091 92.9593 8.27091C90.6974 8.27091 89.0915 9.9747 89.0915 12.2856C89.0915 14.6454 90.6974 16.3003 92.9593 16.3003C95.2474 16.3019 96.8532 14.6471 96.8532 12.2872V12.2856ZM107.598 33.9453H110.007C109.472 37.0836 107.396 38.6895 104.266 38.6895C100.494 38.6895 97.9402 35.8923 97.9402 32.3639C97.9402 28.8601 100.494 26.0367 104.217 26.0367C107.526 26.0367 109.545 27.814 110.007 30.6601H107.574C107.112 29.1032 106.041 28.2268 104.217 28.2268C101.978 28.2268 100.494 29.8817 100.494 32.3639C100.494 34.8462 102.027 36.4994 104.217 36.4994C105.992 36.4961 107.161 35.6459 107.598 33.9453ZM101.256 23.1171V20.8029C103.567 20.8029 104.225 20.1501 105.052 18.1918L100.156 6.07426H102.833L106.361 14.9066L109.89 6.07426H112.323L107.407 18.3142C105.976 21.8686 104.858 23.1138 101.256 23.1138V23.1171ZM117.282 28.2268C115.58 28.2268 114.606 29.0787 114.412 30.3484H111.979C112.295 27.4778 114.242 26.0416 117.282 26.0416C120.568 26.0416 122.342 27.6964 122.342 31.0779V38.4512H119.91V35.5235C119.303 37.2991 118.012 38.6862 115.504 38.6862C113.219 38.6862 111.781 37.4704 111.781 35.2803C111.781 32.5059 114.335 31.0224 119.907 31.0224V30.8266C119.91 29.0755 118.937 28.2236 117.282 28.2236V28.2268ZM113.762 6.08241H116.197V11.5577L121.526 6.08241H124.445L118.799 11.8727L124.905 18.2489H121.622L116.197 12.5304V18.2423H113.762V6.08241ZM116.067 36.6006C118.572 36.6006 119.91 34.8723 119.91 32.7801C115.895 32.7801 114.338 33.7054 114.338 35.1644C114.338 36.0832 114.996 36.594 116.067 36.594V36.6006ZM130.941 8.0408C129.237 8.0408 128.264 8.8927 128.07 10.1624H125.637C125.953 7.29172 127.899 5.85557 130.941 5.85557C134.226 5.85557 136 7.5104 136 10.8919V18.2652H133.568V15.3276C132.959 17.1049 131.67 18.492 129.162 18.492C126.877 18.492 125.439 17.2746 125.439 15.0845C125.439 12.3101 127.993 10.8266 133.565 10.8266V10.6324C133.568 8.88127 132.595 8.02938 130.941 8.02938V8.0408ZM129.725 16.4113C132.23 16.4113 133.568 14.683 133.568 12.5908C129.553 12.5908 127.996 13.5145 127.996 14.9751C127.996 15.8874 128.653 16.3998 129.725 16.3998V16.4113Z" fill="#124F2E"/>
</g>
<defs>
<clipPath id="clip0_727_8362">
<rect width="136" height="43.3097" fill="white"/>
</clipPath>
</defs>
</svg>
