<svg width="54" height="35" viewBox="0 0 54 35" fill="none" xmlns="http://www.w3.org/2000/svg">
<g clip-path="url(#clip0_727_8375)">
<path d="M17.7295 3.26308C18.2327 3.35728 18.7631 3.44258 19.3207 3.51888C19.5745 3.16428 19.8103 2.85008 20.0278 2.56738C19.2345 2.76488 18.4684 2.99828 17.7295 3.26308Z" fill="#B6E4B2"/>
<path d="M17.5352 31.71C18.3466 32.0062 19.1853 32.2621 20.0466 32.482C19.8063 32.1723 19.5343 31.8132 19.2442 31.4048C18.6367 31.4946 18.0701 31.5978 17.5352 31.71Z" fill="#B6E4B2"/>
<path d="M20.5488 31.2344C21.188 32.1007 21.6776 32.6752 21.8453 32.8726C23.3413 33.1464 24.9007 33.3035 26.5055 33.3305V30.8933C24.393 30.9068 22.3576 31.0235 20.5488 31.2344Z" fill="#B6E4B2"/>
<path d="M27.6572 3.9857C29.6745 3.9633 31.6102 3.851 33.3465 3.658C32.7028 2.7963 32.2404 2.2667 32.1497 2.1679C30.7036 1.90311 29.1985 1.74602 27.6572 1.7146V3.9857Z" fill="#B6E4B2"/>
<path d="M21.814 2.1769C21.5828 2.4462 21.1612 2.9579 20.6309 3.676C22.4306 3.869 24.4297 3.9767 26.5059 3.9902V1.7146C24.8921 1.74153 23.3191 1.89862 21.814 2.1769Z" fill="#B6E4B2"/>
<path d="M34.661 3.49648C35.205 3.42018 35.7218 3.33488 36.2068 3.24508C35.4815 2.98928 34.729 2.76038 33.9629 2.56738C34.1714 2.83668 34.4071 3.14638 34.661 3.49648Z" fill="#B6E4B2"/>
<path d="M33.918 32.4865C34.7702 32.271 35.5998 32.0153 36.4022 31.7281C35.8763 31.6159 35.3142 31.5126 34.7113 31.4229C34.4212 31.8268 34.1537 32.1813 33.918 32.4865Z" fill="#B6E4B2"/>
<path d="M27.6572 33.326C29.1895 33.2901 30.6854 33.1375 32.1225 32.8771C32.3174 32.6572 32.7934 32.0872 33.4099 31.2479C31.6646 31.0414 29.7063 30.9202 27.6572 30.8933V33.326Z" fill="#B6E4B2"/>
<path d="M27.0725 7.00171H27.0544H27.0363H27.0181H27H26.9819H26.9683H26.9501H26.9456H26.9411H26.9365H26.932H26.9229H26.9184H26.9139H26.9093H26.9048H26.9003H26.8957H26.8912H26.8776H26.8731H26.8685H26.864H26.8595H26.8549H26.8504H26.8459H26.8323H26.8277H26.8232H26.8187H26.8141H26.8096C26.7371 7.00171 26.6691 7.00171 26.5966 7.00171C25.8078 12.5717 24.9827 18.1462 24.2302 23.7028V23.7207V23.7297C24.1622 24.2369 24.2801 24.7172 24.5566 25.0852C24.8331 25.4532 25.2366 25.6597 25.6854 25.6597C27.3808 25.6687 29.0762 25.6597 30.7717 25.6373C31.6421 25.6238 32.449 24.8338 32.6031 23.8509C33.206 19.9954 33.7817 16.1579 34.2985 12.3383C34.3711 11.8177 34.2487 11.3285 33.9676 10.9559C33.6911 10.6014 33.2967 10.3994 32.8479 10.3904C31.6693 10.3725 30.4951 10.3635 29.3165 10.3545C29.38 9.89221 29.4434 9.42541 29.5069 8.96311C29.5794 8.43351 29.4661 7.93981 29.185 7.57171C28.913 7.21271 28.5186 7.01071 28.0789 7.01071C27.7344 7.00171 27.4035 7.00171 27.0725 7.00171ZM28.8405 13.6893C29.5568 13.6893 30.273 13.6938 30.9938 13.6983C30.885 14.5287 29.8378 21.7324 29.7426 22.3114C29.0309 22.3159 28.3147 22.3204 27.6029 22.3204C27.7208 21.4766 28.7634 14.2638 28.8405 13.6893ZM13.8717 7.32491C13.3776 7.35181 12.888 7.37431 12.3939 7.40121C11.3784 12.7782 10.5398 18.0789 9.955 23.2899C9.9006 23.7836 10.0321 24.2549 10.3267 24.6184C10.6123 24.973 11.0158 25.1839 11.46 25.2109C11.9542 25.2378 12.4438 25.2647 12.9379 25.2917C13.5 19.9685 14.2933 14.6094 15.2362 9.15161C15.3269 8.63551 15.2272 8.15521 14.9642 7.80961C14.7194 7.49101 14.3613 7.32041 13.9488 7.32041C13.9216 7.32041 13.8944 7.32491 13.8717 7.32491ZM23.0244 10.3635C21.3153 10.3814 19.6063 10.4084 17.8973 10.4443C17.0042 10.4622 16.1837 11.2567 16.0205 12.2351C15.413 16.0188 14.8736 19.78 14.4384 23.5053C14.384 23.9945 14.5064 24.4658 14.7965 24.8338C15.0821 25.1974 15.4901 25.4128 15.9434 25.4308C17.6389 25.5026 19.3343 25.5565 21.0343 25.5924C21.9046 25.6148 22.6889 24.8518 22.8158 23.8644C23.3235 20.0179 23.8811 16.1579 24.4433 12.2935C24.5203 11.7638 24.407 11.2701 24.1305 10.9066C23.863 10.5565 23.4731 10.3635 23.0334 10.3635H23.0244ZM17.7431 22.2172C17.8202 21.4048 18.8266 14.2997 18.9354 13.7208C19.6516 13.7118 20.3679 13.7073 21.0887 13.7028C20.9481 14.5421 19.9417 21.692 19.8828 22.2575C19.1711 22.2486 18.4594 22.2351 17.7431 22.2172ZM34.0447 23.6624C33.9631 24.1651 34.0673 24.6409 34.3348 24.9954C34.6023 25.35 34.9967 25.5385 35.45 25.5206C37.1454 25.4667 38.8454 25.3949 40.5453 25.3096C41.4157 25.2647 42.2453 24.4793 42.4221 23.5277C43.22 19.1965 43.8909 14.9191 44.3986 10.7001C43.8592 10.6777 43.3197 10.6552 42.7848 10.6373C41.8917 10.6014 41.1075 11.3285 40.9805 12.2935C40.5589 15.5295 40.0603 18.7971 39.5027 22.087C38.8272 22.1094 38.1518 22.1274 37.4718 22.1409C38.0113 18.8734 38.5054 15.6238 38.9315 12.4012C38.9995 11.8895 38.8771 11.4048 38.5915 11.0412C38.315 10.6866 37.9115 10.4847 37.4673 10.4712C36.9686 10.4577 36.47 10.4488 35.9758 10.4353C35.4092 14.8204 34.7519 19.2324 34.0447 23.6624ZM8.7446 10.7495C7.4799 10.7495 5.2858 10.8348 3.5495 11.0008C2.6519 11.0861 1.5413 11.8895 1.369 12.7917C0.643699 16.5798 0 21.5574 0 22.7288C0 23.1732 0.0996996 23.7567 0.4035 24.1023C0.7027 24.4479 1.2058 24.569 1.6592 24.6453C3.1869 24.8922 5.8434 25.0897 6.8452 25.0762C7.8878 25.0628 8.3593 24.5376 8.5406 23.5233C8.8852 21.5843 9.1662 19.1157 9.3838 17.4236C9.5107 16.5439 8.935 16.3868 8.4454 16.3868C7.2895 16.3868 6.2468 16.3913 5.0908 16.3913C4.982 17.0646 4.8823 17.6705 4.7826 18.3392C4.7055 18.8958 5.1271 19.403 5.6167 19.4164C5.7164 19.4209 5.9431 19.4254 6.0428 19.4254C5.9658 19.9461 5.8615 20.4084 5.5895 21.876C4.8642 21.8401 3.9847 21.7863 3.2594 21.7459C3.2957 21.0098 4.2658 14.5556 4.4108 14.0035C5.1362 13.9856 6.0156 13.9856 6.7455 13.9721C6.7455 13.9721 6.6639 14.3985 6.6684 14.4703C6.6775 14.982 7.0855 15.3904 7.5751 15.3859C8.2822 15.3814 8.9894 15.3769 9.6966 15.3725C9.8462 14.4389 10.0049 13.5008 10.1681 12.5628C10.2542 12.0511 10.1499 11.5708 9.8779 11.2297C9.615 10.8976 9.2161 10.745 8.7628 10.745L8.7446 10.7495ZM47.381 10.8348C46.502 10.8348 45.7359 11.508 45.6181 12.4416C45.5274 13.2046 45.0197 15.8168 44.7885 17.9398C44.8247 18.4694 45.0151 18.7342 45.2871 19.0753C45.5591 19.4164 45.9082 19.5017 46.366 19.4927C46.366 19.4927 49.013 19.4883 49.712 19.4658C49.612 20.0448 49.372 21.315 49.285 21.7324C48.592 21.7683 47.903 21.8042 47.209 21.8356C47.223 21.7369 47.241 21.6337 47.255 21.5349C47.268 21.4676 47.277 21.4003 47.277 21.333C47.277 20.8258 46.8828 20.4308 46.3978 20.4488C45.686 20.4712 44.9743 20.4936 44.2626 20.5161C44.1039 21.4541 43.9362 22.3967 43.7594 23.3437C43.6688 23.833 43.7594 24.2908 44.0223 24.6229C44.2807 24.955 44.6751 25.1121 45.133 25.0897C46.9962 24.9954 47.762 24.9685 50.269 24.6992C51.149 24.6049 52.005 23.7432 52.246 22.8725C52.595 21.6202 52.862 20.4128 53.157 18.043C53.229 17.464 53.125 17.1453 52.844 16.8222C52.572 16.508 52.178 16.333 51.729 16.333C51.729 16.333 48.923 16.333 48.225 16.333C48.32 15.7495 48.574 14.394 48.628 13.9811C49.322 13.9945 50.015 14.0125 50.709 14.0304C50.682 14.1247 50.654 14.2145 50.623 14.3087C50.614 14.3716 50.609 14.4344 50.609 14.5017C50.632 14.9954 51.044 15.3949 51.529 15.3994C52.218 15.4084 52.903 15.4129 53.592 15.4218C53.728 14.6005 53.855 13.7836 53.973 12.9712C54.036 12.5134 53.887 12.2037 53.61 11.8491C53.37 11.5394 52.862 11.1893 52.418 11.1355C51.656 11.0412 50.351 10.9111 47.422 10.8437H47.381V10.8348Z" fill="url(#paint0_linear_727_8375)"/>
<path d="M26.592 6.97949C25.8032 12.5495 24.9782 18.124 24.2257 23.6806V23.694V23.703C24.1577 24.2102 24.2755 24.6904 24.5521 25.0585C24.8286 25.4265 25.232 25.633 25.6854 25.633C27.3808 25.642 29.0762 25.633 30.7717 25.6105C31.6421 25.5971 32.449 24.8071 32.6031 23.8242C33.206 19.9732 33.7817 16.1312 34.2985 12.3116C34.3711 11.7865 34.2487 11.3017 33.9676 10.9292C33.6911 10.5746 33.2967 10.3727 32.8479 10.3637C31.6693 10.3457 30.4951 10.3367 29.3165 10.3278C29.38 9.86549 29.4434 9.39869 29.5069 8.93189C29.5794 8.40229 29.4616 7.90859 29.185 7.54049C28.913 7.18139 28.5186 6.97949 28.0789 6.97949C27.7072 6.97949 27.3355 6.97949 26.9637 6.97949C26.8323 6.97949 26.7099 6.97949 26.592 6.97949ZM28.8405 13.6671C29.5568 13.6671 30.273 13.6716 30.9938 13.6761C30.885 14.5064 29.8378 21.7102 29.7426 22.2892C29.0309 22.2937 28.3147 22.2982 27.6029 22.2982C27.7208 21.4544 28.7634 14.2416 28.8405 13.6671ZM13.8717 7.30259C13.3776 7.32959 12.888 7.35199 12.3939 7.37889C11.3784 12.756 10.5398 18.0567 9.955 23.2676C9.9006 23.7614 10.0321 24.2326 10.3267 24.5962C10.6123 24.9508 11.0158 25.1617 11.46 25.1886C11.9542 25.2156 12.4483 25.2425 12.9379 25.2694C13.5045 19.9463 14.2933 14.5872 15.2362 9.12939C15.3269 8.61319 15.2272 8.13299 14.9642 7.78739C14.7194 7.46869 14.3613 7.29809 13.9488 7.29809C13.9216 7.30259 13.8944 7.30259 13.8717 7.30259ZM23.0244 10.3412C21.3153 10.3592 19.6063 10.3816 17.8973 10.422C17.0042 10.4445 16.1792 11.2344 16.025 12.2129C15.4176 16.001 14.8781 19.7578 14.4384 23.4831C14.384 23.9723 14.5064 24.4436 14.7965 24.8116C15.0821 25.1752 15.4901 25.3906 15.9434 25.4086C17.6389 25.4804 19.3388 25.5342 21.0297 25.5702C21.9001 25.5881 22.6844 24.8296 22.8158 23.8421C23.3235 19.9956 23.8811 16.1357 24.4478 12.2712C24.5249 11.7416 24.4115 11.2479 24.135 10.8843C23.8675 10.5342 23.4777 10.3412 23.038 10.3412H23.0244ZM17.7431 22.1949C17.8202 21.3825 18.8266 14.2775 18.9354 13.6985C19.6516 13.694 20.3679 13.685 21.0887 13.6806C20.9481 14.5199 19.9417 21.6698 19.8873 22.2353C19.1711 22.2263 18.4594 22.2129 17.7431 22.1949ZM34.0447 23.6402C33.9631 24.1429 34.0673 24.6186 34.3348 24.9732C34.6023 25.3278 34.9967 25.5163 35.45 25.4983C37.1454 25.4445 38.8454 25.3727 40.5453 25.2874C41.4157 25.2425 42.2453 24.457 42.4221 23.5055C43.22 19.1743 43.8954 14.8969 44.3986 10.6779C43.8592 10.6554 43.3197 10.6375 42.7848 10.615C41.8917 10.5791 41.1075 11.3062 40.9805 12.2712C40.5589 15.5073 40.0603 18.7748 39.5027 22.0603C38.8272 22.0827 38.1518 22.1007 37.4718 22.1141C38.0113 18.8466 38.5009 15.5971 38.9315 12.3744C38.9995 11.8628 38.8771 11.378 38.5915 11.0145C38.315 10.6599 37.9115 10.4579 37.4673 10.4445C36.9686 10.431 36.47 10.422 35.9758 10.4086C35.4092 14.7982 34.7519 19.2102 34.0447 23.6402ZM8.7446 10.7272C7.4799 10.7272 5.2858 10.8125 3.5495 10.9786C2.6474 11.0639 1.5413 11.8673 1.369 12.7694C0.643699 16.5576 0 21.5351 0 22.7066C0 23.1509 0.0996996 23.7344 0.4035 24.08C0.7072 24.4256 1.2058 24.5468 1.6592 24.6231C3.1869 24.87 5.8434 25.0675 6.8452 25.054C7.8924 25.0405 8.3593 24.5109 8.5406 23.4965C8.8852 21.5576 9.1662 19.089 9.3838 17.3969C9.5107 16.5172 8.935 16.3601 8.4454 16.3601C7.2895 16.3601 6.2468 16.3601 5.0908 16.3646C4.982 17.0378 4.8823 17.6438 4.778 18.3125C4.701 18.8691 5.1226 19.3763 5.6122 19.3942C5.7119 19.3987 5.9386 19.4032 6.0383 19.4077C5.9612 19.9283 5.857 20.3906 5.585 21.8583C4.8596 21.8224 3.9802 21.7685 3.2549 21.7326C3.2911 20.9965 4.2658 14.5423 4.4063 13.9903C5.1316 13.9723 6.0111 13.9723 6.7409 13.9588C6.7409 13.9588 6.6593 14.3897 6.6639 14.457C6.6729 14.9687 7.0809 15.3771 7.5705 15.3727C8.2777 15.3682 8.9849 15.3637 9.6921 15.3592C9.8417 14.4256 10.0003 13.4876 10.1635 12.5495C10.2497 12.0378 10.1454 11.5621 9.8734 11.2165C9.6105 10.8843 9.2116 10.7317 8.7582 10.7317L8.7446 10.7272ZM47.381 10.8125C46.502 10.8125 45.7359 11.4858 45.6181 12.4193C45.5274 13.1824 45.0197 15.7946 44.7885 17.9175C44.8247 18.4472 45.0151 18.712 45.2871 19.0531C45.5591 19.3942 45.9082 19.4795 46.3615 19.4705C46.3615 19.4705 49.009 19.466 49.707 19.4436C49.607 20.0226 49.367 21.2928 49.281 21.7102C48.587 21.7461 47.898 21.782 47.205 21.8134C47.218 21.7147 47.236 21.6114 47.25 21.5127C47.264 21.4454 47.273 21.3781 47.273 21.3107C47.273 20.8035 46.8783 20.4086 46.3932 20.4265C45.6815 20.449 44.9698 20.4714 44.2581 20.4938C44.0994 21.4319 43.9317 22.3745 43.7549 23.3215C43.6642 23.8107 43.7549 24.2685 44.0178 24.6007C44.2762 24.9328 44.6706 25.0899 45.1285 25.0675C46.9916 24.9732 47.758 24.9463 50.265 24.677C51.144 24.5827 52.001 23.721 52.246 22.8502C52.595 21.598 52.862 20.3906 53.157 18.0208C53.229 17.4418 53.125 17.1231 52.844 16.7999C52.572 16.4858 52.173 16.3107 51.729 16.3107C51.729 16.3107 48.923 16.3107 48.225 16.3107C48.32 15.7272 48.574 14.3718 48.628 13.9588C49.322 13.9723 50.015 13.9903 50.709 14.0082C50.682 14.1025 50.654 14.1922 50.623 14.2865C50.614 14.3493 50.609 14.4166 50.609 14.4795C50.632 14.9732 51.044 15.3771 51.529 15.3771C52.218 15.3861 52.908 15.3906 53.592 15.3996C53.728 14.5782 53.855 13.7613 53.973 12.949C54.032 12.4911 53.887 12.1815 53.61 11.8269C53.37 11.5172 52.862 11.1716 52.418 11.1132C51.652 11.019 50.351 10.8888 47.422 10.8215L47.381 10.8125Z" stroke="#C95413" stroke-width="0.25" stroke-miterlimit="10"/>
<path d="M45.4362 9.47929C43.632 7.23069 41.0979 5.3366 38.0697 3.9856C37.2764 4.1921 36.3744 4.3761 35.377 4.5332C36.2202 5.7989 37.1541 7.3877 37.9519 9.1965C40.4361 9.2639 42.9203 9.35809 45.4362 9.47929Z" fill="#B3E2B0"/>
<path d="M37.5359 26.6831C36.8559 28.088 36.1079 29.3402 35.4189 30.3905C36.4524 30.5656 37.3817 30.7765 38.1796 31.0054C40.8225 29.807 43.0891 28.1957 44.8117 26.2971C42.3683 26.4587 39.9476 26.5889 37.5359 26.6831Z" fill="#B3E2B0"/>
<path d="M28.1555 5.77645C28.9488 5.78095 29.6515 6.12655 30.1275 6.75035C30.54 7.28895 30.7712 7.98915 30.7758 8.72075C30.7712 8.77015 30.7712 8.79255 30.7712 8.81505L30.7667 9.05285L31.0069 9.05735C31.6869 9.06185 32.3715 9.07085 32.6979 9.07985L32.9019 9.08435C34.153 9.10225 35.4042 9.12915 36.6554 9.16065C35.8394 7.41015 34.901 5.88865 34.0941 4.70825C32.1539 4.95505 29.9552 5.09415 27.6523 5.12115V5.77645C27.8246 5.77645 27.9923 5.77645 28.1555 5.77645Z" fill="#B3E2B0"/>
<path d="M27.6572 26.885V29.7576C29.9828 29.789 32.2041 29.9371 34.1489 30.2019C34.8017 29.2369 35.5315 28.061 36.207 26.7324C33.3601 26.8312 30.5177 26.8806 27.6572 26.885Z" fill="#B3E2B0"/>
<path d="M24.9557 9.03951H25.1642L25.4815 6.86721C25.5631 6.31061 25.9893 5.87071 26.5106 5.79001V5.12121C24.1578 5.10771 21.8912 4.96861 19.8875 4.73071C19.0761 5.92011 18.1513 7.43721 17.3398 9.16071C19.9329 9.09341 22.4307 9.05301 24.9557 9.03951Z" fill="#B6E4B2"/>
<path d="M17.752 26.719C18.4275 28.0475 19.1527 29.219 19.8055 30.184C21.8183 29.9237 24.1167 29.7711 26.5057 29.7531V26.8851C23.5954 26.8806 20.685 26.8222 17.752 26.719Z" fill="#B6E4B2"/>
<path d="M7.55727 9.5242C11.3063 4.2998 18.6139 0.74955 26.9958 0.74955C35.3823 0.74955 42.6899 4.3043 46.4389 9.5287C46.8061 9.5467 47.1775 9.5646 47.5455 9.5871C43.7371 3.9048 35.9535 0 26.9958 0C18.0382 0 10.2636 3.9004 6.45117 9.5826C6.81837 9.5601 7.19007 9.5422 7.55727 9.5242Z" fill="url(#paint1_linear_727_8375)"/>
<path d="M45.8671 26.2208C41.9776 31.0323 34.9737 34.2504 26.9952 34.2504C19.0122 34.2504 12.0038 31.0278 8.11432 26.2073C7.72442 26.1804 7.33912 26.1535 6.94922 26.1221C10.9158 31.4183 18.4138 34.9955 26.9952 34.9955C35.5676 34.9955 43.0656 31.4228 47.032 26.131C46.6423 26.167 46.2524 26.1939 45.8671 26.2208Z" fill="url(#paint2_linear_727_8375)"/>
<path d="M10.7262 9.3807L10.9211 9.37169L10.9574 9.1832C11.0707 8.5549 11.1841 7.922 11.3019 7.2936C11.4152 6.6743 11.9139 6.2164 12.5078 6.185C12.9974 6.1581 13.4869 6.1312 13.9765 6.1087C14.0264 6.1042 14.0763 6.1042 14.1216 6.1042C14.865 6.1042 15.477 6.3915 15.8986 6.9346C16.1933 7.3161 16.3837 7.7919 16.4517 8.317C17.1453 6.8897 17.9023 5.615 18.6095 4.5513C17.5986 4.3987 16.6783 4.2236 15.8669 4.0127C12.8704 5.3592 10.359 7.23979 8.56836 9.47499C9.28456 9.43909 10.0054 9.4077 10.7262 9.3807Z" fill="#B6E4B2"/>
<path d="M9.17578 26.2837C10.8848 28.1778 13.1333 29.7846 15.7581 30.983C16.565 30.7541 17.4988 30.5431 18.5415 30.3771C17.8524 29.3313 17.1044 28.079 16.429 26.6742C14.0264 26.5754 11.6147 26.4453 9.17578 26.2837Z" fill="#B6E4B2"/>
</g>
<defs>
<linearGradient id="paint0_linear_727_8375" x1="26.9915" y1="25.6606" x2="26.9915" y2="7.00211" gradientUnits="userSpaceOnUse">
<stop stop-color="#F36717"/>
<stop offset="1" stop-color="#F9A70D"/>
</linearGradient>
<linearGradient id="paint1_linear_727_8375" x1="6.45007" y1="4.7936" x2="47.5455" y2="4.7936" gradientUnits="userSpaceOnUse">
<stop stop-color="#13682A"/>
<stop offset="0.6" stop-color="#168A39"/>
<stop offset="1" stop-color="#19AD48"/>
</linearGradient>
<linearGradient id="paint2_linear_727_8375" x1="6.95082" y1="30.5634" x2="47.032" y2="30.5634" gradientUnits="userSpaceOnUse">
<stop stop-color="#13682A"/>
<stop offset="0.6" stop-color="#168A39"/>
<stop offset="1" stop-color="#19AD48"/>
</linearGradient>
<clipPath id="clip0_727_8375">
<rect width="53.9873" height="34.9955" fill="white"/>
</clipPath>
</defs>
</svg>
