<svg width="58" height="40" viewBox="0 0 58 40" fill="none" xmlns="http://www.w3.org/2000/svg">
<g clip-path="url(#clip0_727_8372)">
<path d="M28.8219 9.6811C31.4953 9.6811 33.6625 7.5139 33.6625 4.84057C33.6625 2.1672 31.4953 0 28.8219 0C26.1486 0 23.9814 2.1672 23.9814 4.84057C23.9814 7.5139 26.1486 9.6811 28.8219 9.6811Z" fill="#E63049"/>
<path d="M18.6025 28.9743C19.3785 28.9743 20.0162 28.4518 20.2774 27.7219C20.531 27.0073 20.531 26.3004 20.6693 25.5705C20.9536 24.0261 22.0831 22.9658 23.5736 22.9658H26.647V28.9743H27.9609V32.1322H26.0708V30.849H20.4849V32.1322H18.6101V28.9743H18.6025ZM21.7066 28.9743H24.634V24.8559H23.9271C23.128 24.8559 22.7746 25.3784 22.5902 26.0315C22.2982 27.0227 22.4519 28.1752 21.7066 28.9743Z" fill="#006CDC"/>
<path d="M36.2051 22.958V30.8336H34.3073V27.8063H31.0188V30.8336H29.1133V22.958H31.0188V25.9853H34.3073V22.958H36.2051Z" fill="#006CDC"/>
<path d="M14.5523 30.9873C12.3087 30.9873 10.457 29.1586 10.457 26.8536C10.457 24.5716 12.301 22.7429 14.5523 22.7429C16.7959 22.7429 18.6476 24.5716 18.6476 26.8536C18.6399 29.1586 16.7959 30.9873 14.5523 30.9873ZM14.5523 24.7099C13.3614 24.7099 12.3932 25.6627 12.3932 26.8843C12.3932 28.1214 13.3614 29.0741 14.5523 29.0741C15.7432 29.0741 16.7113 28.1214 16.7113 26.8843C16.7113 25.6627 15.7432 24.7099 14.5523 24.7099Z" fill="#006CDC"/>
<path d="M8.88337 23.8724C8.37627 23.3422 7.67706 23.0041 6.89336 22.9734H3.74316V30.8566H5.69477V28.6515C6.02517 28.7821 6.38626 28.8512 6.76276 28.8512C7.57716 28.8512 8.30707 28.5209 8.83727 27.9907C9.36747 27.4605 9.69777 26.7229 9.69777 25.9162C9.69777 25.1171 9.39047 24.3948 8.88337 23.8724ZM7.46957 26.6307C7.28517 26.8151 7.02396 26.9381 6.73196 26.9381C6.15576 26.9381 5.69477 26.4694 5.69477 25.9008V24.8635H6.73196C7.30826 24.8635 7.76926 25.3322 7.76926 25.9008C7.77696 26.1851 7.66167 26.4463 7.46957 26.6307Z" fill="#006CDC"/>
<path d="M37.9336 30.8337V22.9658H39.8391V27.9524L43.1353 22.9658H45.0254V30.8337H43.1353V25.8471L39.8391 30.8337H37.9336Z" fill="#006CDC"/>
<path d="M50.7115 26.6L53.6625 22.958H51.2035L48.6449 26.4463V22.958H46.7471V30.8412H48.6449V27.0303L51.4725 30.8336L53.9005 30.8412L50.7115 26.6Z" fill="#006CDC"/>
<path d="M12.6858 12.793V13.3001C12.1172 12.9774 11.4565 12.793 10.765 12.793C8.62129 12.793 6.94629 14.4987 6.94629 16.7269C6.94629 18.9474 8.62129 20.6762 10.765 20.6762H14.622V12.793H13.4234H12.6858ZM12.6858 18.7169H10.765C9.69699 18.7169 8.87479 17.8794 8.87479 16.7269C8.87479 15.5744 9.69699 14.7522 10.765 14.7522C11.7484 14.7522 12.6858 15.536 12.6858 16.4964V18.7169Z" fill="#006CDC"/>
<path d="M38.4098 15.8203H35.1213V12.77H33.2158V20.6532H35.1213V17.649H38.4098V20.6763H40.3076V12.793H38.4098V15.8203Z" fill="#006CDC"/>
<path d="M45.3394 20.8374C43.0958 20.8374 41.2441 19.0087 41.2441 16.7037C41.2441 14.4217 43.0882 12.593 45.3394 12.593C47.583 12.593 49.4345 14.4217 49.4345 16.7037C49.4345 19.0087 47.5907 20.8374 45.3394 20.8374ZM45.3394 14.5523C44.1485 14.5523 43.1804 15.5051 43.1804 16.7267C43.1804 17.9638 44.1485 18.9165 45.3394 18.9165C46.5303 18.9165 47.4984 17.9638 47.4984 16.7267C47.4984 15.5051 46.538 14.5523 45.3394 14.5523Z" fill="#006CDC"/>
<path d="M55.5752 15.3287C55.5752 15.2826 55.5752 15.2365 55.5752 15.198C55.5752 15.0828 55.5672 14.9675 55.5522 14.8523C55.3832 13.5768 54.2912 12.5857 52.9702 12.5857C51.5332 12.5857 50.3652 13.7536 50.3652 15.1904C50.3652 15.2211 50.3652 15.2441 50.3652 15.2749V20.6456H54.7992C56.2662 20.6456 57.4652 19.4316 57.4652 17.9257C57.4652 16.704 56.6732 15.6667 55.5752 15.3287ZM54.8452 18.6786H52.3092V14.9522C52.3482 14.6218 52.6322 14.3605 52.9702 14.3605C53.3392 14.3605 53.6382 14.6602 53.6382 15.029C53.6382 15.1827 53.5852 15.3287 53.4922 15.4439C53.4622 15.4823 53.3462 15.6129 53.3312 15.6283H53.3232V16.3736V17.2188H54.8522C55.2132 17.2495 55.4902 17.5492 55.4902 17.9257C55.4982 18.3175 55.2292 18.6786 54.8452 18.6786Z" fill="#006CDC"/>
<path d="M24.457 20.6609V12.77H26.3702V17.7642L29.6741 12.77H31.5719V20.6609H29.6741V15.6667L26.3702 20.6609H24.457Z" fill="#006CDC"/>
<path d="M4.12595 16.4119L7.08405 12.77H4.62535L2.06675 16.2583V12.77H0.168945V20.6532H2.06675V16.8422L4.89434 20.6378L7.31454 20.6532L4.12595 16.4119Z" fill="#006CDC"/>
<path d="M22.8122 12.8008V20.6917H20.9067V14.8215H20.1C19.4699 14.8215 19.0781 15.3209 18.9321 15.9356C18.6171 17.2572 18.7093 18.233 18.2483 19.3086C17.8871 20.1538 17.0343 20.9759 15.5283 20.7531V18.8015C16.0662 18.8092 16.4426 18.5172 16.6424 17.9794C16.9113 17.2572 16.9267 16.3121 17.0881 15.4515C17.3954 13.838 18.4864 12.8008 19.9847 12.8008H22.8122Z" fill="#006CDC"/>
<path d="M2.1744 35.7666C3.4191 35.7666 4.3488 36.581 4.3488 37.8795C4.3488 39.1166 3.4191 39.9925 2.1744 39.9925C0.9297 39.9925 0 39.178 0 37.8795C0 36.6963 0.8682 35.7666 2.1744 35.7666ZM2.1744 39.1242C2.9504 39.1242 3.3577 38.5787 3.3577 37.8872C3.3577 37.1419 2.8352 36.6502 2.1744 36.6502C1.4983 36.6502 0.991199 37.1419 0.991199 37.8872C0.991199 38.5864 1.5213 39.1242 2.1744 39.1242Z" fill="#006CDC"/>
<path d="M7.58415 38.279H6.09355V39.37C6.09355 39.9232 5.15625 39.9233 5.15625 39.9233V36.3351C5.15625 35.7896 6.09355 35.8357 6.09355 35.8357V37.4031H7.58415V36.3889C7.58415 35.7896 8.52155 35.8433 8.52155 35.8433V39.9309C7.99905 39.9924 7.57645 39.9232 7.58415 39.3624V38.279Z" fill="#006CDC"/>
<path d="M11.9249 36.7116H11.0259L10.9414 37.4799C10.6955 39.6313 10.1808 40.0769 9.22801 39.9233C9.02821 39.7619 8.91301 39.2471 9.24341 38.9859C9.58141 39.0473 9.9349 38.9167 10.0962 36.6501L10.1577 35.8357H12.87V39.9233C12.87 39.9233 11.9326 40.0385 11.9326 39.2318V36.7116H11.9249Z" fill="#006CDC"/>
<path d="M14.9521 36.2736C15.1826 35.7051 15.974 35.8357 15.974 35.8357L17.6721 39.9233C17.6721 39.9233 16.7116 39.9233 16.4811 39.4392L16.3351 39.0627H14.7139L14.5756 39.4238C14.3912 39.9233 13.4385 39.9233 13.4385 39.9233L14.9521 36.2736ZM15.0674 38.1945H15.9817L15.5284 37.042L15.0674 38.1945Z" fill="#006CDC"/>
<path d="M18.2559 39.9232V35.8356C18.2559 35.8356 19.1933 35.8356 19.1933 36.5117V38.3711L21.0065 35.8279H21.821V39.9155C21.821 39.9155 20.8836 39.9616 20.8836 39.1011V37.3723L19.0703 39.9155H18.2559V39.9232ZM20.1383 35.0826C20.7607 35.0826 20.4994 34.6985 21.3523 34.7907C21.3677 35.3592 20.8682 35.728 20.1383 35.728C19.3469 35.728 18.9013 35.3515 18.9013 34.7907C19.8002 34.7292 19.4699 35.0826 20.1383 35.0826Z" fill="#006CDC"/>
<path d="M25.3548 38.279H23.8642V39.37C23.8642 39.9232 22.9268 39.9233 22.9268 39.9233V36.3351C22.9268 35.7896 23.8642 35.8357 23.8642 35.8357V37.4031H25.3548V36.3889C25.3548 35.7896 26.2922 35.8433 26.2922 35.8433V39.9309C25.7697 39.9924 25.3471 39.9232 25.3548 39.3624V38.279Z" fill="#006CDC"/>
<path d="M27.1611 38.7322C27.1611 38.7322 27.1534 37.9177 27.5683 37.9177H28.6977C28.6977 37.9177 28.6977 38.7322 28.2828 38.7322H27.1611Z" fill="#006CDC"/>
<path d="M29.5811 35.8357H30.5185L31.7786 37.5568L32.9695 35.8357H33.8531V39.9233C33.2999 39.9617 32.9158 39.8157 32.9158 39.2702V37.3186L31.7786 38.909H31.648L30.5185 37.3339L30.5262 39.2702C30.5185 39.7926 30.1344 39.9386 29.5888 39.9233V35.8357H29.5811Z" fill="#006CDC"/>
<path d="M35.9502 36.2736C36.1807 35.7051 36.972 35.8357 36.972 35.8357L38.6701 39.9233C38.6701 39.9233 37.7097 39.9233 37.4792 39.4392L37.3332 39.0627H35.712L35.5737 39.4238C35.3893 39.9233 34.4365 39.9233 34.4365 39.9233L35.9502 36.2736ZM36.0654 38.1945H36.9874L36.5341 37.042L36.0654 38.1945Z" fill="#006CDC"/>
<path d="M39.2549 35.8357H41.5907C41.5907 35.8357 41.5983 36.7116 41.0836 36.7116H40.1923V39.2702C40.1923 39.9617 39.2549 39.9233 39.2549 39.9233V35.8357Z" fill="#006CDC"/>
<path d="M42.79 36.2736C43.0205 35.7051 43.8119 35.8357 43.8119 35.8357L45.51 39.9233C45.51 39.9233 44.5495 39.9233 44.319 39.4392L44.173 39.0627H42.5518L42.4135 39.4238C42.2291 39.9233 41.2764 39.9233 41.2764 39.9233L42.79 36.2736ZM42.9053 38.1945H43.8273L43.374 37.042L42.9053 38.1945Z" fill="#006CDC"/>
<path d="M45.7471 39.2624C46.2465 38.4634 46.6998 39.1241 47.1685 39.1241C47.4221 39.1241 47.7371 39.0243 47.7371 38.6939C47.7371 38.4557 47.545 38.279 47.0994 38.279C46.4616 38.1714 46.6614 37.7565 46.7229 37.4031H47.0763C47.3452 37.4031 47.5757 37.2878 47.5757 37.0266C47.5757 36.773 47.3913 36.6501 47.1224 36.6501C46.6691 36.6501 46.3771 37.2494 45.8623 36.4426C46.1236 36.0661 46.646 35.7742 47.2453 35.7742C47.9753 35.7742 48.5054 36.1737 48.5054 36.9267C48.5054 37.2187 48.3594 37.549 47.9906 37.7949V37.8103C48.4747 37.964 48.6591 38.3174 48.6591 38.7861C48.6591 39.5391 47.9215 40.0001 47.1916 40.0001C46.3848 40.0001 45.9622 39.5852 45.7471 39.2624Z" fill="#006CDC"/>
<path d="M49.6123 39.9232V35.8356C49.6123 35.8356 50.5493 35.7818 50.5493 36.5117V38.3711L52.3623 35.8279H53.1773V39.9155C53.1773 39.9155 52.2403 39.9616 52.2403 39.1933V37.38L50.4263 39.9232H49.6123Z" fill="#006CDC"/>
<path d="M56.7044 38.279H55.2134V39.37C55.2134 39.9232 54.2764 39.9233 54.2764 39.9233V36.3351C54.2764 35.7896 55.2134 35.8357 55.2134 35.8357V37.4031H56.7044V36.3889C56.7044 35.7896 57.6414 35.8433 57.6414 35.8433V39.9309C57.1194 39.9924 56.6964 39.9232 56.7044 39.3624V38.279Z" fill="#006CDC"/>
</g>
<defs>
<clipPath id="clip0_727_8372">
<rect width="57.6414" height="40.0001" fill="white"/>
</clipPath>
</defs>
</svg>
