<svg width="140" height="22" viewBox="0 0 140 22" fill="none" xmlns="http://www.w3.org/2000/svg">
<g clip-path="url(#clip0_727_8365)">
<path d="M0.00146484 6.68823C2.16125 11.7565 7.18859 15.3119 13.0476 15.3119C10.8878 10.2414 5.86042 6.68823 0.00146484 6.68823Z" fill="#12B36A"/>
<path fill-rule="evenodd" clip-rule="evenodd" d="M23.6787 21.6308C29.5498 21.6308 34.3095 16.8722 34.3095 10.9999C34.3095 5.12994 29.5498 0.369141 23.6787 0.369141C17.8065 0.369141 13.0479 5.12994 13.0479 10.9999C13.0479 16.8722 17.8065 21.6308 23.6787 21.6308ZM23.6787 16.3161C26.6137 16.3161 28.9935 13.9362 28.9935 11.0001C28.9935 8.06404 26.6137 5.68524 23.6787 5.68524C20.7425 5.68524 18.3627 8.06404 18.3627 11.0001C18.3627 13.9362 20.7425 16.3161 23.6787 16.3161Z" fill="#FEBE10"/>
<path d="M34.3096 14.1175C38.6136 14.1175 42.3195 11.5596 43.9916 7.88257C39.6886 7.88257 35.9828 10.4405 34.3096 14.1175Z" fill="#12B36A"/>
<path d="M96.4432 2.38127H100.89V19.6176H96.4432V12.9049H88.6788V19.6176H84.232V2.38127H88.6788V8.73347H96.4432V2.38127ZM102.984 6.65667H108.521V19.6176H112.967V6.65667H118.436V2.38127H102.984V6.65667ZM139.998 15.8686V19.5324C139.24 19.9118 138.293 20.1008 137.187 20.1008C134.877 20.1008 133.714 19.0956 133.248 17.4766L133.174 17.585C131.829 19.2737 129.968 20.1008 127.555 20.1008C125.244 20.1008 123.279 19.2394 121.625 17.481C120.005 15.7227 119.178 13.5507 119.178 10.9995C119.178 8.45037 120.005 6.31267 121.625 4.55437C123.279 2.79707 125.244 1.89917 127.555 1.89917C129.861 1.89917 131.663 2.65777 132.992 4.20267V2.38237H137.439V14.5748C137.439 15.6165 137.913 16.1529 138.861 16.1529C139.304 16.1518 139.683 16.0577 139.998 15.8686ZM133.174 10.9983C133.174 9.58717 132.726 8.41497 131.795 7.51807C130.899 6.58807 129.761 6.13907 128.382 6.13907C127.003 6.13907 125.866 6.58697 124.969 7.51807C124.073 8.41497 123.625 9.58717 123.625 10.9983C123.625 12.4128 124.073 13.585 124.969 14.5162C125.866 15.4119 127.003 15.8598 128.382 15.8598C129.761 15.8598 130.899 15.4119 131.795 14.5162C132.726 13.585 133.174 12.4128 133.174 10.9983ZM47.5975 2.38127L47.4648 8.85737C47.4338 11.4794 47.3387 12.7744 46.9594 14.2574C46.6121 15.6795 45.9486 16.081 44.908 16.081C44.5596 16.081 44.2444 16.0489 43.9912 15.9538V19.6176C44.3384 19.8067 44.9079 19.9007 45.6655 19.9007C48.7918 19.8067 50.308 18.3314 51.0666 15.6784C51.603 13.783 51.6981 12.3298 51.7932 10.1513L51.8927 6.65547H57.4144V19.6165H61.8611V2.38017H47.5975V2.38127ZM69.014 12.1629C69.4928 15.1045 71.8251 16.0677 74.1917 16.0677C75.7598 16.0677 77.4032 15.455 78.414 14.5383L81.1565 17.2975C79.5187 19.1111 77.2384 20.1008 74.122 20.1008C69.7593 20.1008 64.4964 17.5253 64.4964 10.9995C64.4964 4.47477 69.5647 1.89917 73.8688 1.89917C79.313 1.89917 81.5657 4.45707 81.5657 7.32457C81.5668 12.0125 75.6083 14.1778 69.014 12.1629ZM76.7385 7.83217C76.7385 6.49517 75.4159 5.89797 73.934 5.89797C71.6703 5.89797 69.7085 6.85347 69.1124 9.31297C73.725 10.6456 76.7385 9.65137 76.7385 7.83217Z" fill="#FEBE10"/>
</g>
<defs>
<clipPath id="clip0_727_8365">
<rect width="139.997" height="21.2617" fill="white" transform="translate(0.00146484 0.369141)"/>
</clipPath>
</defs>
</svg>
