<svg width="136" height="20" viewBox="0 0 136 20" fill="none" xmlns="http://www.w3.org/2000/svg">
<g clip-path="url(#clip0_727_8364)">
<path d="M12.9971 0.266602C7.03459 0.266602 2.16269 6.50788 0.544685 14.9597C0.526807 15.0433 0.508939 15.2569 0.5 15.3405C0.651967 15.3405 1.16149 15.3962 1.34028 14.9039C4.45114 8.10536 8.25927 3.89811 12.9882 3.89811C17.7885 3.89811 21.8022 8.91339 24.2248 15.3312C24.7253 14.8297 25.4941 14.0402 25.4941 13.2786C23.5364 5.7742 18.602 0.266602 12.9971 0.266602Z" fill="black"/>
<path d="M108.003 0.266602C102.041 0.266602 97.1687 6.50788 95.5506 14.9597C95.5329 15.0433 95.5151 15.2569 95.5059 15.3405C95.658 15.3405 96.1677 15.3962 96.3462 14.9039C99.4571 8.10536 103.265 3.89811 108.003 3.89811C112.804 3.89811 116.817 8.91339 119.231 15.3312C119.731 14.8297 120.509 14.0402 120.509 13.2786C118.534 5.7742 113.608 0.266602 108.003 0.266602Z" fill="black"/>
<path d="M27.55 0.266602C26.8975 0.266602 26.2002 0.628816 26.2002 1.4833C26.2002 1.89197 27.0047 3.32222 27.5858 4.73396C28.1668 3.29441 28.9356 1.97555 28.9356 1.4833C28.9356 0.628816 28.283 0.266602 27.55 0.266602Z" fill="black"/>
<path d="M38.4922 0.628906C34.112 0.628906 31.5286 1.75273 30.0089 2.78362L31.6805 3.64741C33.075 2.70004 34.7198 1.78984 37.929 1.78984C44.3206 1.78984 45.438 5.76501 45.6347 7.33461L45.6168 7.28814C45.5542 7.30673 45.4916 7.32531 45.438 7.3439C44.7318 7.56682 43.8468 7.84544 42.3808 7.84544C41.7371 7.84544 41.317 7.68751 40.7896 7.47395C40.1281 7.21386 39.2967 6.89806 37.9022 6.89806C36.7222 6.89806 35.7032 7.14887 34.9433 7.38101V8.97849C35.6584 8.75564 36.7043 8.43055 37.9022 8.43055C39.0375 8.43055 39.6364 8.66276 40.2711 8.9135C40.8611 9.14571 41.469 9.37786 42.3808 9.37786C43.9183 9.37786 44.9195 9.09924 45.6704 8.8671C45.6615 9.14571 45.6615 9.37786 45.6525 9.45221C45.5095 10.8175 44.5173 14.5326 37.929 14.5326C34.3354 14.5326 32.932 13.8174 31.5374 12.7679L29.9463 13.771C31.6537 14.8669 33.6382 15.6935 38.4922 15.6935C44.8569 15.6935 49.2462 12.7586 49.2462 8.53272C49.2462 4.29751 44.8659 0.628906 38.4922 0.628906Z" fill="black"/>
<path d="M50.0859 5.40269H54.2516V15.3405H57.2105V5.40269H61.2421V4.03735H50.0859V5.40269Z" fill="black"/>
<path d="M77.8147 4.03735L71.6738 12.9164L66.0776 4.03735H62.9131L70.0466 15.2941L66.9804 19.7335H68.9738L79.7995 4.03735H77.8147Z" fill="black"/>
<path d="M86.9887 3.84253C83.0731 3.84253 80.3645 4.69696 80.2749 6.62882H80.2664V7.02819H83.3681C83.3681 5.96013 83.9404 5.20779 87.1764 5.20779C90.5106 5.20779 90.8326 5.91366 90.8326 7.02819V8.61638H86.1037C81.7323 8.61638 79.542 10.1396 79.542 12.2014C79.542 13.9846 81.3655 15.3221 84.9413 15.3221H93.7914V6.90744C93.8 4.5855 92.1378 3.84253 86.9887 3.84253ZM90.8326 13.9753H85.6835C83.4484 13.9753 82.6977 13.2138 82.6977 12.0714C82.6977 10.9383 83.6183 10.0095 85.9515 10.0095H90.8326V13.9753Z" fill="black"/>
<path d="M129.537 8.62546H125.086V4.03735H122.082V15.3312H130.395C133.739 15.3312 135.5 13.8916 135.5 11.8762C135.5 9.56354 132.8 8.62546 129.537 8.62546ZM129.689 13.9752H125.086V10.0094H129.448C131.638 10.0094 132.496 10.7895 132.496 11.9319C132.496 13.2414 131.79 13.9752 129.689 13.9752Z" fill="black"/>
</g>
<defs>
<clipPath id="clip0_727_8364">
<rect width="135" height="19.4669" fill="white" transform="translate(0.5 0.266602)"/>
</clipPath>
</defs>
</svg>
