<svg width="106" height="24" viewBox="0 0 106 24" fill="none" xmlns="http://www.w3.org/2000/svg">
<g clip-path="url(#clip0_727_8363)">
<path d="M12.8141 18.3253C15.5296 17.9642 17.722 15.671 18.0676 12.8311C18.5737 8.66508 15.2083 5.14523 11.2246 5.67481C8.5091 6.03572 6.31645 8.32885 5.97135 11.1688C5.46475 15.335 8.8306 18.8549 12.8141 18.3253ZM13.186 0.10251C18.5371 0.656774 22.8655 5.18349 23.3955 10.7802C24.1117 18.3427 18.0842 24.6464 10.8527 23.8974C5.50156 23.3431 1.17318 18.8166 0.643414 13.2201C-0.0731839 5.65738 5.95447 -0.646244 13.186 0.10251ZM29.5308 0.575718H46.2688C46.9042 0.575718 47.2654 1.33647 46.8815 1.86583L35.3021 17.8428H44.3747C46.0283 17.8428 47.3305 19.4164 46.9872 21.2096C46.7354 22.5244 45.5566 23.4226 44.2743 23.4226H26.0967C25.4671 23.4226 25.1093 22.6691 25.4894 22.1445L37.0778 6.15549H29.6312C28.3489 6.15549 27.1701 5.25753 26.9183 3.94251C26.575 2.1493 27.8772 0.575718 29.5308 0.575718V0.575718ZM102.168 0.63934C103.894 0.25919 105.415 1.62651 105.415 3.36538V22.6179C105.415 23.2897 104.673 23.6644 104.17 23.2469L89.731 11.2673V20.6377C89.731 22.3765 88.2102 23.7436 86.4836 23.3637C85.2453 23.0913 84.3957 21.8861 84.3957 20.5634V1.3804C84.3957 0.708623 85.1375 0.33368 85.6406 0.75119L100.08 12.7313L100.08 3.43964C100.08 2.1167 100.93 0.911718 102.168 0.63934ZM64.5726 0.0420574C73.4121 0.0420574 80.5785 5.39451 80.5785 11.9968C80.5785 18.599 73.4123 23.9515 64.5726 23.9515C55.7327 23.9515 48.5665 18.599 48.5665 11.9968C48.5665 5.39451 55.7325 0.0420574 64.5726 0.0420574ZM64.5726 5.62183C58.4653 5.62183 53.902 8.98749 53.902 11.9968C53.902 15.0061 58.4653 18.3717 64.5726 18.3717C70.6797 18.3717 75.243 15.0061 75.243 11.9968C75.243 8.98772 70.6797 5.62183 64.5726 5.62183V5.62183Z" fill="#005BFF"/>
</g>
<defs>
<clipPath id="clip0_727_8363">
<rect width="104.83" height="23.9159" fill="white" transform="translate(0.585449 0.0419922)"/>
</clipPath>
</defs>
</svg>
