<svg xmlns:xlink="http://www.w3.org/1999/xlink" xmlns="http://www.w3.org/2000/svg" width="159" height="18" viewBox="0 0 159 18" fill="none">
<g clip-path="url(#clip0_519_1206)">
<path d="M34.2103 0.290536H23.2012C21.9939 0.290536 21.0248 1.22083 21.0248 2.34938C21.0248 3.50843 21.9939 4.42347 23.2012 4.42347H26.5055V15.709C26.5055 16.868 27.5064 17.7678 28.7137 17.7678C29.9369 17.7678 30.9219 16.868 30.9219 15.709V4.42347H34.2103C35.4177 4.42347 36.3867 3.50843 36.3867 2.34938C36.3708 1.22083 35.4018 0.290536 34.2103 0.290536ZM129.289 7.30585L125.698 6.75682C124.825 6.61957 124.189 6.2078 124.189 5.38426C124.189 4.28621 125.19 4.0117 126.08 4.0117C127.128 4.0117 127.78 4.05745 128.526 4.1032C129.495 4.14896 130.353 4.20996 131.052 4.20996C132.259 4.20996 133.165 3.37117 133.165 2.28837C133.165 1.05307 132.196 0.321037 131.068 0.229533C129.448 0.107528 128.701 0.0922768 126.397 0.0922768C122.632 0.0922768 119.916 2.01386 119.916 5.35376C119.916 8.25139 121.632 10.0052 124.428 10.4475C125.826 10.661 126.683 10.7525 127.954 10.9965C128.844 11.1643 129.479 11.515 129.479 12.3843C129.479 13.3909 128.685 13.7416 127.795 13.7416C125.698 13.7416 123.713 13.5434 122.41 13.5434C121.806 13.5434 121.489 13.6654 121.091 13.9399C120.599 14.2907 120.281 14.9007 120.281 15.5107C120.281 16.7308 121.25 17.4933 122.394 17.5695C124.015 17.6611 124.999 17.7373 127.287 17.7373C131.052 17.7373 133.753 15.7852 133.753 12.4453C133.753 9.51719 132.037 7.73286 129.289 7.30585ZM65.8396 0.107528C60.5336 0.107528 56.6256 3.87444 56.6256 8.93767C56.6256 13.9856 60.5336 17.7373 65.8396 17.7373C71.1455 17.7373 75.0535 13.9704 75.0535 8.93767C75.0535 3.87444 71.0979 0.107528 65.8396 0.107528ZM65.8396 13.6654C62.9801 13.6654 61.0261 11.637 61.0261 8.93767C61.0261 6.2383 62.9642 4.17946 65.8396 4.17946C68.6991 4.17946 70.6531 6.2383 70.6531 8.93767C70.6531 11.637 68.6991 13.6654 65.8396 13.6654ZM48.8255 8.80041L54.1474 3.52368C54.9417 2.73064 54.8782 1.41909 54.0521 0.671803C53.2419 -0.121232 51.8757 -0.0907312 51.0814 0.702304L45.9502 5.76553L45.5848 6.13154C45.1082 6.60431 44.7746 6.68057 44.4251 6.68057C43.8691 6.68057 43.4243 6.3298 43.4243 5.78078V2.15112C43.4243 1.00732 42.4393 0.0922768 41.2479 0.0922768C40.0564 0.0922768 39.0715 1.00732 39.0715 2.15112V15.6937C39.0715 16.8375 40.0564 17.7526 41.2479 17.7526C42.4393 17.7526 43.4243 16.8375 43.4243 15.6937V11.8353C43.4243 11.3168 43.885 10.9508 44.4251 10.9508C44.7746 10.9508 45.1082 11.0118 45.5848 11.4998L45.9502 11.8658L51.2561 17.1273C52.0663 17.9203 53.4325 17.9661 54.2586 17.1578C55.0688 16.3952 55.1482 15.0837 54.3539 14.2754L48.8255 8.80041ZM92.9413 0.0770264C91.7498 0.0770264 90.7808 0.992067 90.7808 2.15112V10.1425L82.5835 0.83956L82.5677 0.85481C82.1705 0.38204 81.5668 0.0770264 80.8678 0.0770264C79.7082 0.0770264 78.7232 0.992067 78.7232 2.15112V15.709C78.7232 16.8528 79.6923 17.7526 80.8678 17.7526C82.0752 17.7526 83.0284 16.8528 83.0284 15.709V7.65661L91.1144 16.7918C91.4957 17.3713 92.1788 17.7373 92.9413 17.7373C94.1486 17.7373 95.0859 16.8375 95.0859 15.6937V2.15112C95.0859 0.992067 94.1486 0.0770264 92.9413 0.0770264ZM107.779 0.107528C102.473 0.107528 98.565 3.87444 98.565 8.93767C98.565 13.9856 102.473 17.7373 107.779 17.7373C113.085 17.7373 116.993 13.9704 116.993 8.93767C116.977 3.87444 113.037 0.107528 107.779 0.107528ZM107.779 13.6654C104.919 13.6654 102.965 11.637 102.965 8.93767C102.965 6.2383 104.904 4.17946 107.779 4.17946C110.638 4.17946 112.592 6.2383 112.592 8.93767C112.577 11.637 110.638 13.6654 107.779 13.6654ZM16.2113 0.138029C15.0675 0.138029 14.0667 1.09882 14.0667 2.30362V9.28843C14.0667 11.8963 12.1286 13.6501 9.53917 13.6501C6.96562 13.6501 5.01163 11.8963 5.01163 9.28843V2.30362C5.01163 1.09882 4.02669 0.138029 2.867 0.138029C1.612 0.138029 0.642944 1.09882 0.642944 2.30362V9.21218C0.642944 11.8048 1.54845 13.8789 3.05763 15.343C4.64625 16.868 6.88619 17.7526 9.5074 17.7526C12.1604 17.7526 14.4003 16.868 15.9889 15.343C17.514 13.8789 18.4036 11.82 18.4036 9.21218V2.30362C18.4354 1.09882 17.4663 0.138029 16.2113 0.138029Z" fill="black"/>
<path fill-rule="evenodd" clip-rule="evenodd" d="M140.838 0.0771484C139.63 0.0771484 138.661 1.00744 138.661 2.16649V15.6176C138.661 16.7767 139.63 17.707 140.838 17.707H149.575C154.643 17.707 158.757 13.757 158.757 8.89205C158.757 4.02708 154.643 0.0771484 149.575 0.0771484C146.096 0.0771484 144.317 0.0771484 140.838 0.0771484Z" fill="#FFC709"/>
<path fill-rule="evenodd" clip-rule="evenodd" d="M152.006 9.53262C151.529 9.53262 151.148 9.91389 151.148 10.3714C151.148 10.8289 151.529 11.1949 152.006 11.1949C152.482 11.1949 152.864 10.8289 152.864 10.3714C152.864 9.91389 152.482 9.53262 152.006 9.53262ZM152.006 6.58923C151.529 6.58923 151.148 6.9705 151.148 7.41277C151.148 7.87029 151.529 8.23631 152.006 8.23631C152.482 8.23631 152.864 7.85504 152.864 7.41277C152.864 6.9705 152.482 6.58923 152.006 6.58923Z" fill="black"/>
</g>
<defs>
<clipPath id="clip0_519_1206">
<rect width="159" height="18" fill="white"/>
</clipPath>
</defs>
</svg>