<svg width="110" height="32" viewBox="0 0 110 32" fill="none" xmlns="http://www.w3.org/2000/svg">
<g clip-path="url(#clip0_727_8373)">
<path d="M35.2471 0.918945H38.3076L41.7979 11.8977L45.2654 0.918945H48.3454L43.53 15.2025H40.0397L35.2471 0.918945Z" fill="#043E44"/>
<path d="M59.1412 10.1035C59.1412 13.1446 56.8979 15.492 54.163 15.492C52.6718 15.492 51.5908 14.9418 50.8583 14.0008V19.2851H48.2275V5.0016H50.8583V6.20628C51.5941 5.26861 52.675 4.71509 54.163 4.71509C56.8979 4.71509 59.1412 7.06253 59.1412 10.1035ZM56.5072 10.1035C56.5072 8.39096 55.3026 7.2253 53.6713 7.2253C52.0597 7.2253 50.855 8.38766 50.855 10.1035C50.855 11.8161 52.0597 12.9817 53.6713 12.9817C55.3058 12.9785 56.5072 11.8161 56.5072 10.1035Z" fill="#043E44"/>
<path d="M66.1805 4.79663V7.73341C64.813 7.57064 63.078 8.18269 63.078 10.3251V15.2024H60.4473V4.99851H63.078V6.75341C63.6087 5.36636 64.8945 4.79663 66.1805 4.79663Z" fill="#043E44"/>
<path d="M66.2432 10.1035C66.2432 7.06253 68.6302 4.71509 71.6318 4.71509C74.6307 4.71509 77.0397 7.06253 77.0397 10.1035C77.0397 13.1446 74.6307 15.492 71.6318 15.492C68.6302 15.4887 66.2432 13.1413 66.2432 10.1035ZM74.4063 10.1035C74.4063 8.44958 73.2018 7.28722 71.6318 7.28722C70.082 7.28722 68.8775 8.44958 68.8775 10.1035C68.8775 11.7575 70.082 12.9199 71.6318 12.9199C73.2018 12.9166 74.4063 11.7543 74.4063 10.1035Z" fill="#043E44"/>
<path d="M84.6876 15.2025L80.9725 10.5694V15.2025H78.3418V0.918945H80.9725V9.48847L84.4824 4.99858H87.6242L83.5216 10.0387L87.7451 15.2025H84.6876Z" fill="#043E44"/>
<path d="M88.2979 13.7344C88.2979 12.7739 89.0728 11.999 90.0336 11.999C90.9936 11.999 91.7685 12.7739 91.7685 13.7344C91.7685 14.6949 90.9936 15.4698 90.0336 15.4698C89.0728 15.4698 88.2979 14.6949 88.2979 13.7344Z" fill="#043E44"/>
<path d="M99.1527 4.79663V7.73341C97.7852 7.57064 96.0503 8.18269 96.0503 10.3251V15.2024H93.416V4.99851H96.0503V6.75341C96.5843 5.36636 97.8667 4.79663 99.1527 4.79663Z" fill="#043E44"/>
<path d="M109.5 5.0022V15.2061H106.87V14.0633C106.258 14.9815 105.196 15.4926 103.829 15.4926C101.667 15.4926 99.9707 13.9819 99.9707 11.2698V5.00549H102.601V10.9442C102.601 12.3311 103.438 13.0475 104.623 13.0475C105.909 13.0475 106.866 12.2921 106.866 10.5176V5.0087H109.5V5.0022Z" fill="#043E44"/>
<path d="M43.5468 28.8481H41.9254V22.167H39.0211V28.8481H37.3965V20.614H43.5468V28.8481Z" fill="#043E44"/>
<path d="M47.8281 27.637C48.4175 27.637 48.8863 27.3895 49.1468 27.0477L50.371 27.7542C49.8175 28.5552 48.9352 29.0142 47.8053 29.0142C45.829 29.0142 44.582 27.6598 44.582 25.9081C44.582 24.1564 45.842 22.802 47.6882 22.802C49.4301 22.802 50.6641 24.1793 50.6641 25.9081C50.6641 26.1328 50.6413 26.3314 50.6054 26.53H46.171C46.3825 27.3082 47.0272 27.637 47.8281 27.637ZM49.1468 25.3546C48.958 24.5081 48.323 24.1662 47.6882 24.1662C46.8774 24.1662 46.3239 24.6025 46.1481 25.3546H49.1468Z" fill="#043E44"/>
<path d="M57.8987 25.9081C57.8987 27.6598 56.6061 29.0142 55.0303 29.0142C54.1707 29.0142 53.5489 28.6952 53.1256 28.1546V31.2022H51.6084V22.9681H53.1256V23.6616C53.5489 23.1211 54.1707 22.802 55.0303 22.802C56.6029 22.8053 57.8987 24.1564 57.8987 25.9081ZM56.3815 25.9081C56.3815 24.9216 55.6879 24.2509 54.7471 24.2509C53.8191 24.2509 53.1223 24.9216 53.1223 25.9081C53.1223 26.8946 53.8159 27.5654 54.7471 27.5654C55.6879 27.5686 56.3815 26.8979 56.3815 25.9081Z" fill="#043E44"/>
<path d="M61.7911 27.637C62.3804 27.637 62.8492 27.3895 63.1097 27.0477L64.3342 27.7542C63.7801 28.5552 62.8981 29.0142 61.7683 29.0142C59.7919 29.0142 58.5449 27.6598 58.5449 25.9081C58.5449 24.1564 59.805 22.802 61.6511 22.802C63.393 22.802 64.6273 24.1793 64.6273 25.9081C64.6273 26.1328 64.6044 26.3314 64.5687 26.53H60.1339C60.3422 27.3082 60.9901 27.637 61.7911 27.637ZM63.1064 25.3546C62.9176 24.5081 62.2827 24.1662 61.6479 24.1662C60.8371 24.1662 60.2836 24.6025 60.1077 25.3546H63.1064Z" fill="#043E44"/>
<path d="M69.2249 28.8483L67.0852 26.1786V28.8483H65.5684V22.9683H67.0852V25.5566L69.1077 22.9683H70.9176L68.5544 25.8724L70.9891 28.8483H69.2249Z" fill="#043E44"/>
<path d="M77.9188 25.9081C77.9188 27.6598 76.6264 29.0142 75.05 29.0142C74.1908 29.0142 73.5689 28.6952 73.1457 28.1546V31.2022H71.6279V22.9681H73.1457V23.6616C73.5689 23.1211 74.1908 22.802 75.05 22.802C76.6227 22.8053 77.9188 24.1564 77.9188 25.9081ZM76.401 25.9081C76.401 24.9216 75.7077 24.2509 74.767 24.2509C73.8391 24.2509 73.1457 24.9216 73.1457 25.9081C73.1457 26.8946 73.8391 27.5654 74.767 27.5654C75.7077 27.5686 76.401 26.8979 76.401 25.9081Z" fill="#043E44"/>
<path d="M81.8116 27.6367C82.4006 27.6367 82.8696 27.3892 83.1306 27.0474L84.3544 27.7539C83.8011 28.5548 82.919 29.0139 81.7887 29.0139C79.8121 29.0139 78.5654 27.6595 78.5654 25.9078C78.5654 24.1561 79.8258 22.8017 81.6715 22.8017C83.4137 22.8017 84.6475 24.179 84.6475 25.9078C84.6475 26.1325 84.6246 26.3311 84.5888 26.5297H80.1546C80.3662 27.3079 81.0111 27.6367 81.8116 27.6367ZM79.682 21.558C79.682 21.1217 80.0466 20.7571 80.4835 20.7571C80.9195 20.7571 81.2712 21.1217 81.2712 21.558C81.2712 21.9943 80.9195 22.3459 80.4835 22.3459C80.0466 22.3459 79.682 21.991 79.682 21.558ZM83.1306 25.3543C82.941 24.5078 82.3063 24.1659 81.6715 24.1659C80.8609 24.1659 80.3076 24.6022 80.1317 25.3543H83.1306ZM81.916 21.558C81.916 21.1217 82.2806 20.7571 82.7166 20.7571C83.1526 20.7571 83.5043 21.1217 83.5043 21.558C83.5043 21.9943 83.1526 22.3459 82.7166 22.3459C82.2806 22.3459 81.916 21.991 81.916 21.558Z" fill="#043E44"/>
<path d="M85.2344 25.9081C85.2344 24.1564 86.5534 22.802 88.3404 22.802C89.4936 22.802 90.4929 23.4141 90.9747 24.3193L89.6695 25.0844C89.435 24.6025 88.9266 24.2965 88.3276 24.2965C87.4226 24.2965 86.7521 24.9672 86.7521 25.9081C86.7521 26.8361 87.4226 27.5068 88.3276 27.5068C88.9395 27.5068 89.4442 27.2138 89.6787 26.7319L90.9976 27.484C90.493 28.4021 89.4936 29.0142 88.3404 29.0142C86.5534 29.0142 85.2344 27.6598 85.2344 25.9081Z" fill="#043E44"/>
<path d="M96.5966 24.4268H94.7601V28.8483H93.2432V24.4268H91.3838V22.9683H96.5929V24.4268H96.5966Z" fill="#043E44"/>
<path d="M96.75 25.9081C96.75 24.1564 98.1276 22.802 99.856 22.802C101.585 22.802 102.972 24.1532 102.972 25.9081C102.972 27.6598 101.585 29.0142 99.856 29.0142C98.1276 29.0142 96.75 27.6598 96.75 25.9081ZM101.455 25.9081C101.455 24.9542 100.761 24.2867 99.856 24.2867C98.9639 24.2867 98.2678 24.9575 98.2678 25.9081C98.2678 26.8588 98.9611 27.5328 99.856 27.5328C100.761 27.5328 101.455 26.8621 101.455 25.9081Z" fill="#043E44"/>
<path d="M107.582 28.8483L105.44 26.1786V28.8483H103.923V22.9683H105.44V25.5566L107.462 22.9683H109.272L106.908 25.8724L109.344 28.8483H107.582Z" fill="#043E44"/>
<path d="M22.6547 0.798096H6.14255C3.03833 0.798096 0.5 3.33643 0.5 6.44064V22.9528C0.5 26.057 3.03833 28.5955 6.14255 28.5955H22.6547C25.7589 28.5955 28.2974 26.057 28.2974 22.9528V6.44064C28.2974 3.33963 25.7589 0.798096 22.6547 0.798096Z" fill="#043E44"/>
<path d="M14.5339 10.4819L10.3203 14.6986L14.5339 18.9154C16.8612 21.2428 20.6337 21.2428 22.9578 18.9154C25.2852 16.5881 25.2852 12.8125 22.9578 10.4851C20.6305 8.15459 16.858 8.15459 14.5339 10.4819Z" fill="white"/>
<path d="M6.91044 14.6986L2.6969 10.4819C2.38684 10.1717 2.05114 9.90956 1.69629 9.68579V19.7113C2.05114 19.4876 2.38684 19.2222 2.6969 18.9122L6.91044 14.6986Z" fill="white"/>
<path d="M12.8266 20.622L8.61629 16.4053L4.40266 20.622C2.99289 22.0319 2.44935 23.9885 2.74668 25.8171C3.56189 26.7826 4.78315 27.3996 6.14501 27.3996H13.9967C15.0485 25.1841 14.6585 22.4539 12.8266 20.622Z" fill="white"/>
<path d="M4.40324 8.77478L8.61358 12.9915L12.8272 8.77478C14.6591 6.94294 15.0427 4.20959 13.9909 1.99414H6.14239C4.78044 1.99414 3.55927 2.61114 2.74406 3.57977C2.44994 5.40521 2.99659 7.36813 4.40324 8.77478Z" fill="white"/>
</g>
<defs>
<clipPath id="clip0_727_8373">
<rect width="109" height="30.4041" fill="white" transform="translate(0.5 0.798096)"/>
</clipPath>
</defs>
</svg>
