<svg width="300" height="80" viewBox="0 0 300 80" fill="none" xmlns="http://www.w3.org/2000/svg">
<rect width="300" height="80" rx="4" fill="url(#paint0_linear_728_8380)"/>
<path d="M33.0995 53.9699L25.5 26.0011H30.485L36.3252 47.482L42.5814 25.9988H47.2294L53.5088 47.5957L59.3769 26.0058L64.3619 25.9988L56.7577 53.9664L50.9791 53.9606L44.9089 33.0736L38.8316 53.9652L33.1006 53.971L33.0995 53.9699ZM67.8002 26.015H72.5458V53.9525H67.8002V26.015ZM82.6912 49.57H94.245V53.9525H78.0444V26.015H82.6924V49.57H82.6912ZM108.842 26.0475C112.737 26.0475 115.977 27.4012 118.53 30.075C121.115 32.75 122.425 36.0688 122.425 40C122.425 43.8988 121.115 47.2175 118.53 49.9238C115.977 52.5988 112.737 53.9525 108.842 53.9525H97.681V26.015H108.842V26.0475ZM108.842 49.6025C111.526 49.6025 113.719 48.7 115.355 46.895C117.057 45.0912 117.908 42.7712 117.908 40.0325C117.908 37.2288 117.057 34.9737 115.355 33.1688C113.686 31.3638 111.494 30.4625 108.842 30.4625H102.362V49.6025H108.842ZM147.462 45.9717C147.462 48.2604 146.644 50.1628 144.974 51.6777C143.306 53.1927 141.342 53.9664 138.92 53.9664H126.777V26.015H138.037C140.36 26.015 142.324 26.7888 143.927 28.2399C145.563 29.7224 146.349 31.561 146.349 33.7522C146.349 36.2033 145.367 38.0732 143.47 39.4594C145.956 40.7482 147.462 43.0694 147.462 45.9717ZM131.458 30.3349V37.6858H138.07C140.131 37.6858 141.702 36.0734 141.702 34.0109C141.702 31.9473 140.131 30.336 138.069 30.336H131.457L131.458 30.3349ZM138.953 49.6466C141.113 49.6466 142.814 47.9379 142.814 45.7455C142.814 43.5531 141.113 41.8444 138.953 41.8444H131.458V49.679H138.953V49.6466ZM156.528 49.5816H169.096V53.9664H151.881V26.015H168.9V30.3998H156.528V37.6533H167.885V42.0056H156.528V49.5816ZM189.453 53.9664L183.432 43.7793H177.933V53.9664H173.285V26.015H184.643C187.195 26.015 189.356 26.885 191.089 28.6598C192.857 30.3674 193.774 32.496 193.774 35.0097C193.774 38.5558 191.516 41.8119 188.144 43.1018L194.592 53.9664H189.453ZM177.933 30.3372V39.6868H184.61C187.097 39.6868 189.06 37.622 189.06 35.012C189.06 32.4322 187.064 30.3372 184.61 30.3372H177.933ZM214.294 53.9664L208.306 43.7735H202.807V53.9664H198.159V26.0011H209.516C212.069 26.0011 214.229 26.8711 215.964 28.6459C217.732 30.3558 218.647 32.4844 218.647 35.0004C218.647 38.5488 216.39 41.8061 213.019 43.0972L219.465 53.9664H214.294ZM202.807 30.3233V39.6775H209.484C211.97 39.6775 213.934 37.6127 213.934 35.0004C213.934 32.4194 211.938 30.3233 209.484 30.3233H202.807ZM222.87 26.0046H227.517V53.9664H222.87V26.0046ZM237.663 49.5816H250.232V53.9664H233.015V26.015H250.035V30.3998H237.663V37.6533H249.02V42.0056H237.663V49.5816ZM253.471 47.605L257.496 45.285C258.642 48.4425 260.966 49.9888 264.533 49.9888C268.068 49.9888 269.803 48.5063 269.803 46.315C269.803 45.155 269.312 44.3175 268.396 43.7375C267.479 43.125 265.777 42.4499 263.355 41.74C260.638 40.935 259.297 40.4188 257.399 39.195C255.566 37.905 254.649 36.0688 254.649 33.555C254.649 31.075 255.533 29.1412 257.334 27.6912C259.101 26.2076 261.261 25.5 263.78 25.5C268.33 25.5 271.832 27.82 273.664 31.655L269.738 33.8775C268.56 31.3 266.562 29.9799 263.78 29.9799C261.065 29.9799 259.33 31.3325 259.33 33.4599C259.33 35.5212 260.705 36.4875 265.057 37.8099C266.137 38.1637 266.923 38.4212 267.414 38.615C267.937 38.775 268.625 39.065 269.508 39.42C270.425 39.775 271.145 40.1937 271.57 40.5475C273.075 41.7075 274.68 43.6099 274.484 46.2837C274.484 48.7963 273.567 50.8263 271.702 52.3088C269.868 53.7924 267.447 54.5 264.436 54.5C258.937 54.4675 254.943 51.89 253.471 47.605Z" fill="white"/>
<defs>
<linearGradient id="paint0_linear_728_8380" x1="0" y1="80" x2="300" y2="80" gradientUnits="userSpaceOnUse">
<stop stop-color="#BE1F7C"/>
<stop offset="1" stop-color="#50327C"/>
</linearGradient>
</defs>
</svg>
