<svg width="122" height="24" viewBox="0 0 122 24" fill="none" xmlns="http://www.w3.org/2000/svg">
<g clip-path="url(#clip0_727_8371)">
<path d="M57.3773 19.7164H59.7683L63.1012 7.32658V19.7164H65.7821V3.34155H62.0869L58.7539 15.3691L55.421 3.34155H51.6533V19.7164H53.9719V7.32658L57.3773 19.7164ZM77.0126 11.6014C77.0126 8.70323 75.5635 7.6164 72.5928 7.6164C70.709 7.6164 69.2599 8.19604 68.3905 8.70323V11.0218C69.115 10.4422 70.7815 9.86251 72.2306 9.86251C73.6072 9.86251 74.1869 10.3697 74.1869 11.6014V12.2535H73.7521C69.4773 12.2535 67.521 13.7026 67.521 16.0936C67.521 18.4847 68.9701 19.8613 71.1437 19.8613C72.8102 19.8613 73.5348 19.3541 74.0419 18.7745H74.1869C74.1869 19.0643 74.3318 19.499 74.4042 19.7164H77.1575C77.0851 18.7745 77.0126 17.7601 77.0126 16.8182V11.6014V11.6014ZM74.1869 16.8907C73.8246 17.3978 73.1725 17.8326 72.1581 17.8326C70.9988 17.8326 70.4192 17.108 70.4192 16.0936C70.4192 14.717 71.3611 14.2098 73.8246 14.2098H74.2593V16.8907H74.1869ZM81.8671 7.83377H79.2587V23.1218H82.0845V18.3398C82.809 19.4266 83.8234 19.9338 85.0551 19.9338C87.8084 19.9338 89.6922 17.7601 89.6922 13.7751C89.6922 9.79006 87.8809 7.6164 85.2 7.6164C83.8958 7.6164 82.809 8.19604 82.012 9.35532L81.8671 7.83377ZM84.2581 17.7601C82.809 17.7601 82.012 16.5284 82.012 13.8475C82.012 11.0942 82.809 9.86251 84.403 9.86251C85.9246 9.86251 86.7216 11.0942 86.7216 13.7751C86.7216 16.5284 85.9246 17.7601 84.2581 17.7601V17.7601ZM98.4593 19.7164H101.647L97.1551 13.3404L101.14 7.83377H98.3144L94.3294 13.3404V7.83377H91.5036V19.7164H94.3294V13.92L98.4593 19.7164ZM111.066 18.9194V16.6008C110.197 17.1805 108.748 17.6877 107.371 17.6877C105.343 17.6877 104.546 16.7457 104.401 14.717H111.139V13.1954C111.139 9.06551 109.328 7.54395 106.502 7.54395C103.096 7.54395 101.43 10.1523 101.43 13.7751C101.43 17.905 103.459 19.9338 107.009 19.9338C108.965 19.9338 110.269 19.499 111.066 18.9194ZM106.502 9.86251C107.878 9.86251 108.313 11.0218 108.313 12.4709V12.6883H104.401C104.473 10.8044 105.198 9.86251 106.502 9.86251V9.86251ZM121.21 10.0799V7.83377H111.791V10.0799H115.124V19.7164H117.95V10.0799H121.21Z" fill="black"/>
<path d="M34.9159 22.6147C40.9297 22.6147 45.7842 17.7602 45.7842 11.7464C45.7842 5.73266 40.9297 0.878174 34.9159 0.878174C28.9022 0.878174 24.0477 5.73266 24.0477 11.7464C23.9752 17.7602 28.9022 22.6147 34.9159 22.6147Z" fill="#FED42B"/>
<path d="M11.6583 22.6147C17.6607 22.6147 22.5266 17.7488 22.5266 11.7464C22.5266 5.74406 17.6607 0.878174 11.6583 0.878174C5.65593 0.878174 0.790039 5.74406 0.790039 11.7464C0.790039 17.7488 5.65593 22.6147 11.6583 22.6147Z" fill="#FC3F1D"/>
<path d="M13.2522 6.96451H12.1654C10.2816 6.96451 9.33964 7.90642 9.33964 9.35553C9.33964 10.9495 9.99173 11.7465 11.3684 12.6885L12.4552 13.4855L9.33964 18.34H6.80371L9.77437 13.9202C8.03545 12.6885 7.09353 11.5292 7.09353 9.50044C7.09353 6.96451 8.83245 5.22559 12.1654 5.22559H15.4983V18.2675H13.3247V6.96451H13.2522Z" fill="white"/>
<path d="M29.5543 6.81954L19.9902 19.3543L22.5262 22.2525L29.6268 12.8333L28.9022 17.9776L32.8872 19.3543L37.7417 11.6016C37.5244 13.0507 37.1621 16.3836 40.3501 17.398C45.3495 18.9195 49.6968 9.9351 51.7256 5.37043L48.8274 3.84888C46.5813 8.55846 43.1034 13.7752 41.7268 13.4129C40.3501 13.0507 41.5819 8.63091 42.3789 5.80516V5.73271L37.9591 4.21115L32.6699 12.8333L33.3944 8.12373L29.5543 6.81954Z" fill="black"/>
</g>
<defs>
<clipPath id="clip0_727_8371">
<rect width="120.42" height="22.2436" fill="white" transform="translate(0.790039 0.878174)"/>
</clipPath>
</defs>
</svg>
