<svg width="185" height="16" viewBox="0 0 185 16" fill="none" xmlns="http://www.w3.org/2000/svg">
<path d="M5.69402 3.48H11.358V11.076H12.378V13.776H11.286V12H5.02202V13.776H3.93002V11.076H4.65002C4.93802 10.668 5.17802 10.132 5.37002 9.468C5.55402 8.82 5.65402 7.888 5.67002 6.672L5.69402 3.48ZM5.81402 11.076H10.242V4.404H6.72602L6.70202 6.708C6.66202 8.828 6.36602 10.284 5.81402 11.076ZM17.6904 6.096H18.8064V12H17.8344V9.576C17.8344 8.6 17.8464 7.784 17.8704 7.128C17.3744 7.952 16.9184 8.68 16.5024 9.312L14.7504 12H13.6464V6.096H14.6184V8.712C14.6184 9.488 14.6064 10.224 14.5824 10.92C15.2064 9.912 15.6584 9.2 15.9384 8.784L17.6904 6.096ZM25.0867 10.308C25.0867 10.86 24.8587 11.312 24.4027 11.664C23.9467 12.008 23.3427 12.18 22.5907 12.18C21.5747 12.18 20.6787 11.84 19.9027 11.16L20.4667 10.464C21.1467 11.032 21.8547 11.316 22.5907 11.316C23.0627 11.316 23.4267 11.224 23.6827 11.04C23.9467 10.848 24.0787 10.592 24.0787 10.272C24.0787 9.68 23.6227 9.384 22.7107 9.384H21.6067V8.58H22.7347C23.1187 8.58 23.4107 8.504 23.6107 8.352C23.8107 8.192 23.9107 7.968 23.9107 7.68C23.9107 7.392 23.7907 7.168 23.5507 7.008C23.3187 6.84 22.9907 6.756 22.5667 6.756C21.9747 6.756 21.3267 7 20.6227 7.488L20.1307 6.792C20.9787 6.208 21.8027 5.916 22.6027 5.916C23.2507 5.916 23.7987 6.064 24.2467 6.36C24.7027 6.648 24.9307 7.06 24.9307 7.596C24.9307 8.228 24.5947 8.672 23.9227 8.928C24.6987 9.176 25.0867 9.636 25.0867 10.308ZM31.1955 7.896V12H30.2595V11.268C29.8435 11.884 29.1755 12.192 28.2555 12.192C27.6075 12.192 27.0915 12.052 26.7075 11.772C26.3315 11.492 26.1435 11.08 26.1435 10.536C26.1435 9.904 26.3795 9.444 26.8515 9.156C27.3395 8.86 28.0195 8.636 28.8915 8.484L30.2115 8.244V7.944C30.2115 7.584 30.0835 7.3 29.8275 7.092C29.5795 6.884 29.2475 6.78 28.8315 6.78C28.4715 6.78 28.1475 6.856 27.8595 7.008C27.5795 7.152 27.2555 7.408 26.8875 7.776L26.2275 7.188C26.9395 6.348 27.7955 5.928 28.7955 5.928C29.5475 5.928 30.1355 6.108 30.5595 6.468C30.9835 6.82 31.1955 7.296 31.1955 7.896ZM30.2115 9.792V9.012L29.1315 9.228C28.3955 9.38 27.8875 9.536 27.6075 9.696C27.3355 9.856 27.1835 10.124 27.1515 10.5C27.1515 10.772 27.2555 10.98 27.4635 11.124C27.6795 11.268 27.9795 11.34 28.3635 11.34C28.8995 11.34 29.3395 11.2 29.6835 10.92C30.0355 10.632 30.2115 10.256 30.2115 9.792ZM37.9782 6.096H36.8622L35.1102 8.784C34.8302 9.2 34.3782 9.912 33.7542 10.92C33.7782 10.224 33.7902 9.488 33.7902 8.712V6.096H32.8182V12H33.9222L35.6742 9.312C36.0902 8.68 36.5462 7.952 37.0422 7.128C37.0182 7.784 37.0062 8.6 37.0062 9.576V12H37.9782V6.096ZM37.2822 3.732C37.2822 4.228 37.1142 4.612 36.7782 4.884C36.4502 5.148 35.9902 5.28 35.3982 5.28C34.7982 5.28 34.3302 5.148 33.9942 4.884C33.6662 4.612 33.5022 4.228 33.5022 3.732H34.3782C34.3782 4.012 34.4662 4.232 34.6422 4.392C34.8182 4.544 35.0702 4.62 35.3982 4.62C35.7262 4.62 35.9782 4.544 36.1542 4.392C36.3302 4.232 36.4182 4.012 36.4182 3.732H37.2822ZM44.5705 12H43.5385V9.372H40.6705V12H39.6385V6.096H40.6705V8.52H43.5385V6.096H44.5705V12ZM52.999 6.096H54.115V12H53.143V9.576C53.143 8.6 53.155 7.784 53.179 7.128C52.683 7.952 52.227 8.68 51.811 9.312L50.059 12H48.955V6.096H49.927V8.712C49.927 9.488 49.915 10.224 49.891 10.92C50.515 9.912 50.967 9.2 51.247 8.784L52.999 6.096ZM64.062 9.036C64.062 9.964 63.818 10.716 63.33 11.292C62.842 11.868 62.218 12.156 61.458 12.156C60.57 12.156 59.918 11.84 59.502 11.208V14.16H58.47V6.096H59.442V7.008C59.882 6.296 60.554 5.94 61.458 5.94C62.218 5.94 62.842 6.228 63.33 6.804C63.818 7.38 64.062 8.124 64.062 9.036ZM62.538 10.656C62.85 10.248 63.006 9.708 63.006 9.036C63.006 8.364 62.85 7.828 62.538 7.428C62.234 7.02 61.822 6.816 61.302 6.816C60.75 6.816 60.306 7.016 59.97 7.416C59.634 7.816 59.466 8.356 59.466 9.036C59.466 9.724 59.634 10.268 59.97 10.668C60.306 11.068 60.75 11.268 61.302 11.268C61.814 11.268 62.226 11.064 62.538 10.656ZM70.1252 7.896V12H69.1892V11.268C68.7732 11.884 68.1052 12.192 67.1852 12.192C66.5372 12.192 66.0212 12.052 65.6372 11.772C65.2612 11.492 65.0732 11.08 65.0732 10.536C65.0732 9.904 65.3092 9.444 65.7812 9.156C66.2692 8.86 66.9492 8.636 67.8212 8.484L69.1412 8.244V7.944C69.1412 7.584 69.0132 7.3 68.7572 7.092C68.5092 6.884 68.1772 6.78 67.7612 6.78C67.4012 6.78 67.0772 6.856 66.7892 7.008C66.5092 7.152 66.1852 7.408 65.8172 7.776L65.1572 7.188C65.8692 6.348 66.7252 5.928 67.7252 5.928C68.4772 5.928 69.0652 6.108 69.4892 6.468C69.9132 6.82 70.1252 7.296 70.1252 7.896ZM69.1412 9.792V9.012L68.0612 9.228C67.3252 9.38 66.8172 9.536 66.5372 9.696C66.2652 9.856 66.1132 10.124 66.0812 10.5C66.0812 10.772 66.1852 10.98 66.3932 11.124C66.6092 11.268 66.9092 11.34 67.2932 11.34C67.8292 11.34 68.2692 11.2 68.6132 10.92C68.9652 10.632 69.1412 10.256 69.1412 9.792ZM76.3679 10.308C76.3679 10.86 76.1399 11.312 75.6839 11.664C75.2279 12.008 74.6239 12.18 73.8719 12.18C72.8559 12.18 71.9599 11.84 71.1839 11.16L71.7479 10.464C72.4279 11.032 73.1359 11.316 73.8719 11.316C74.3439 11.316 74.7079 11.224 74.9639 11.04C75.2279 10.848 75.3599 10.592 75.3599 10.272C75.3599 9.68 74.9039 9.384 73.9919 9.384H72.8879V8.58H74.0159C74.3999 8.58 74.6919 8.504 74.8919 8.352C75.0919 8.192 75.1919 7.968 75.1919 7.68C75.1919 7.392 75.0719 7.168 74.8319 7.008C74.5999 6.84 74.2719 6.756 73.8479 6.756C73.2559 6.756 72.6079 7 71.9039 7.488L71.4119 6.792C72.2599 6.208 73.0839 5.916 73.8839 5.916C74.5319 5.916 75.0799 6.064 75.5279 6.36C75.9839 6.648 76.2119 7.06 76.2119 7.596C76.2119 8.228 75.8759 8.672 75.2039 8.928C75.9799 9.176 76.3679 9.636 76.3679 10.308ZM83.2808 9.036C83.2808 9.964 83.0368 10.716 82.5488 11.292C82.0608 11.868 81.4368 12.156 80.6768 12.156C79.7888 12.156 79.1368 11.84 78.7208 11.208V14.16H77.6888V6.096H78.6608V7.008C79.1008 6.296 79.7728 5.94 80.6768 5.94C81.4368 5.94 82.0608 6.228 82.5488 6.804C83.0368 7.38 83.2808 8.124 83.2808 9.036ZM81.7568 10.656C82.0688 10.248 82.2248 9.708 82.2248 9.036C82.2248 8.364 82.0688 7.828 81.7568 7.428C81.4528 7.02 81.0408 6.816 80.5208 6.816C79.9688 6.816 79.5248 7.016 79.1888 7.416C78.8528 7.816 78.6848 8.356 78.6848 9.036C78.6848 9.724 78.8528 10.268 79.1888 10.668C79.5248 11.068 79.9688 11.268 80.5208 11.268C81.0328 11.268 81.4448 11.064 81.7568 10.656ZM89.344 7.896V12H88.408V11.268C87.992 11.884 87.324 12.192 86.404 12.192C85.756 12.192 85.24 12.052 84.856 11.772C84.48 11.492 84.292 11.08 84.292 10.536C84.292 9.904 84.528 9.444 85 9.156C85.488 8.86 86.168 8.636 87.04 8.484L88.36 8.244V7.944C88.36 7.584 88.232 7.3 87.976 7.092C87.728 6.884 87.396 6.78 86.98 6.78C86.62 6.78 86.296 6.856 86.008 7.008C85.728 7.152 85.404 7.408 85.036 7.776L84.376 7.188C85.088 6.348 85.944 5.928 86.944 5.928C87.696 5.928 88.284 6.108 88.708 6.468C89.132 6.82 89.344 7.296 89.344 7.896ZM88.36 9.792V9.012L87.28 9.228C86.544 9.38 86.036 9.536 85.756 9.696C85.484 9.856 85.332 10.124 85.3 10.5C85.3 10.772 85.404 10.98 85.612 11.124C85.828 11.268 86.128 11.34 86.512 11.34C87.048 11.34 87.488 11.2 87.832 10.92C88.184 10.632 88.36 10.256 88.36 9.792ZM95.8124 6.936C96.2844 7.456 96.5204 8.172 96.5204 9.084C96.5204 9.996 96.2524 10.736 95.7164 11.304C95.1804 11.872 94.4884 12.156 93.6404 12.156C92.7124 12.156 91.9924 11.832 91.4804 11.184C90.9684 10.528 90.7124 9.592 90.7124 8.376C90.7124 6.76 90.9604 5.584 91.4564 4.848C91.9604 4.104 92.8524 3.672 94.1324 3.552L96.0884 3.384L96.1604 4.356L94.2284 4.524C93.2924 4.596 92.6364 4.848 92.2604 5.28C91.8924 5.704 91.6724 6.452 91.6004 7.524C91.7924 7.1 92.0884 6.764 92.4884 6.516C92.8884 6.268 93.3524 6.144 93.8804 6.144C94.6964 6.144 95.3404 6.408 95.8124 6.936ZM95.4644 9.108C95.4644 8.46 95.3044 7.948 94.9844 7.572C94.6724 7.196 94.2404 7.008 93.6884 7.008C93.1364 7.008 92.6764 7.204 92.3084 7.596C91.9484 7.98 91.7684 8.484 91.7684 9.108C91.7684 9.772 91.9364 10.304 92.2724 10.704C92.6084 11.096 93.0604 11.292 93.6284 11.292C94.1884 11.292 94.6324 11.096 94.9604 10.704C95.2964 10.304 95.4644 9.772 95.4644 9.108ZM102.431 6.804C102.975 7.38 103.247 8.128 103.247 9.048C103.247 9.968 102.975 10.72 102.431 11.304C101.887 11.88 101.187 12.168 100.331 12.168C99.475 12.168 98.771 11.88 98.219 11.304C97.675 10.72 97.403 9.968 97.403 9.048C97.403 8.128 97.675 7.38 98.219 6.804C98.771 6.22 99.475 5.928 100.331 5.928C101.187 5.928 101.887 6.22 102.431 6.804ZM98.963 7.416C98.627 7.832 98.459 8.376 98.459 9.048C98.459 9.72 98.627 10.264 98.963 10.68C99.307 11.096 99.763 11.304 100.331 11.304C100.899 11.304 101.351 11.1 101.687 10.692C102.023 10.276 102.191 9.728 102.191 9.048C102.191 8.368 102.023 7.824 101.687 7.416C101.351 7 100.899 6.792 100.331 6.792C99.763 6.792 99.307 7 98.963 7.416ZM108.648 6.936H106.68V12H105.648V6.936H103.668V6.096H108.648V6.936ZM113.749 12L111.841 9.372H110.749V12H109.717V6.096H110.749V8.52H111.841L113.617 6.096H114.733L112.657 8.904L114.913 12H113.749ZM120.539 7.896V12H119.603V11.268C119.187 11.884 118.519 12.192 117.599 12.192C116.951 12.192 116.435 12.052 116.051 11.772C115.675 11.492 115.487 11.08 115.487 10.536C115.487 9.904 115.723 9.444 116.195 9.156C116.683 8.86 117.363 8.636 118.235 8.484L119.555 8.244V7.944C119.555 7.584 119.427 7.3 119.171 7.092C118.923 6.884 118.591 6.78 118.175 6.78C117.815 6.78 117.491 6.856 117.203 7.008C116.923 7.152 116.599 7.408 116.231 7.776L115.571 7.188C116.283 6.348 117.139 5.928 118.139 5.928C118.891 5.928 119.479 6.108 119.903 6.468C120.327 6.82 120.539 7.296 120.539 7.896ZM119.555 9.792V9.012L118.475 9.228C117.739 9.38 117.231 9.536 116.951 9.696C116.679 9.856 116.527 10.124 116.495 10.5C116.495 10.772 116.599 10.98 116.807 11.124C117.023 11.268 117.323 11.34 117.707 11.34C118.243 11.34 118.683 11.2 119.027 10.92C119.379 10.632 119.555 10.256 119.555 9.792Z" fill="#382B6A"/>
<path d="M130.489 0H137.586C139.811 0 141.826 0.905129 143.297 2.34858C144.756 3.80441 145.672 5.79824 145.672 8.00014C145.672 10.2018 144.756 12.1956 143.297 13.6511C141.826 15.0946 139.811 16 137.586 16H130.489C129.871 16 129.5 15.6329 129.5 15.0214V0.978612C129.5 0.367117 129.871 0 130.489 0Z" fill="#382B6A"/>
<path d="M166.145 16C165.525 16 165.155 15.6329 165.155 15.0214V0.978612C165.155 0.367117 165.525 0 166.145 0H175.379C177.889 0 179.929 2.01834 179.929 4.50148C179.929 5.32103 179.707 6.10399 179.311 6.76448C180.633 7.682 181.5 9.19894 181.5 10.9236C181.5 13.7246 179.201 16 176.368 16H166.145Z" fill="#382B6A"/>
<path d="M162.436 14.7646L155.042 0.391617C154.77 -0.122189 153.929 -0.122189 153.657 0.40373L146.239 14.8136C145.992 15.3026 146.326 15.9876 146.932 15.9876L161.781 16C162.423 16 162.72 15.3026 162.436 14.7646Z" fill="#382B6A"/>
</svg>
