<svg width="45" height="30" viewBox="0 0 45 30" fill="none" xmlns="http://www.w3.org/2000/svg">
<g opacity="0.9" clip-path="url(#clip0_566_8962)">
<path d="M17.9219 6.31348V13.7926" stroke="#A1A1A1" stroke-width="1.39642" stroke-miterlimit="10"/>
<path d="M29.5465 6.31348C29.5534 5.54632 29.4083 4.7854 29.1195 4.07464C28.8307 3.36388 28.404 2.71738 27.8639 2.17245C27.3239 1.62753 26.6813 1.19499 25.9731 0.899803C25.265 0.604618 24.5054 0.452637 23.7382 0.452637C22.971 0.452637 22.2114 0.604618 21.5033 0.899803C20.7952 1.19499 20.1525 1.62753 19.6125 2.17245C19.0725 2.71738 18.6457 3.36388 18.3569 4.07464C18.0681 4.7854 17.923 5.54632 17.9299 6.31348" stroke="#A1A1A1" stroke-width="1.39642" stroke-miterlimit="10"/>
<path d="M29.5387 30.0841V22.605C29.5456 21.8378 29.4005 21.0769 29.1117 20.3661C28.8229 19.6554 28.3961 19.0089 27.8561 18.464C27.3161 17.919 26.6734 17.4865 25.9653 17.1913C25.2572 16.8961 24.4976 16.7441 23.7304 16.7441C22.9632 16.7441 22.2036 16.8961 21.4955 17.1913C20.7874 17.4865 20.1447 17.919 19.6047 18.464C19.0647 19.0089 18.6379 19.6554 18.3491 20.3661C18.0603 21.0769 17.9152 21.8378 17.9221 22.605V30.0841" stroke="#A1A1A1" stroke-width="1.39642" stroke-miterlimit="10"/>
<path d="M12.9766 5.06836V13.7927" stroke="#A1A1A1" stroke-width="1.39642" stroke-miterlimit="10"/>
<path d="M19.8906 7.14844H23.7331" stroke="#A1A1A1" stroke-width="1.39642" stroke-miterlimit="10"/>
<path d="M45.2572 0.504883H39.4487C37.9083 0.505008 36.4309 1.11703 35.3417 2.20633C34.2525 3.29563 33.6406 4.77298 33.6406 6.31341V7.39701C33.6405 8.15984 33.7906 8.91522 34.0825 9.62002C34.3743 10.3248 34.8021 10.9652 35.3414 11.5047C35.8807 12.0442 36.5211 12.4721 37.2258 12.7641C37.9305 13.0561 38.6859 13.2064 39.4487 13.2065H45.2572" stroke="#A1A1A1" stroke-width="1.39642" stroke-miterlimit="10"/>
<path d="M0.703125 -0.164062V7.39801C0.703125 8.93853 1.31509 10.4159 2.4044 11.5053C3.49372 12.5946 4.97114 13.2065 6.51166 13.2065H10.2755" stroke="#A1A1A1" stroke-width="1.39642" stroke-miterlimit="10"/>
<path d="M0.703125 16.1279V23.69C0.70325 25.2304 1.31527 26.7077 2.40457 27.7969C3.49387 28.8862 4.97122 29.4981 6.51166 29.4981H10.2755" stroke="#A1A1A1" stroke-width="1.39642" stroke-miterlimit="10"/>
<path d="M35.6016 7.14844H40.179" stroke="#A1A1A1" stroke-width="1.39642" stroke-miterlimit="10"/>
<path d="M45.2572 16.7974H39.4487C37.9083 16.7975 36.4311 17.4094 35.3419 18.4986C34.2527 19.5878 33.6408 21.0651 33.6406 22.6054V23.689C33.6405 24.4518 33.7906 25.2072 34.0825 25.912C34.3743 26.6168 34.8021 27.2572 35.3414 27.7967C35.8807 28.3362 36.5211 28.7641 37.2258 29.0561C37.9305 29.3481 38.6859 29.4984 39.4487 29.4985H45.2572" stroke="#A1A1A1" stroke-width="1.39642" stroke-miterlimit="10"/>
<path d="M35.6094 23.4395H40.1869" stroke="#A1A1A1" stroke-width="1.39642" stroke-miterlimit="10"/>
<path d="M12.9766 3.67845V-0.164062" stroke="#A1A1A1" stroke-width="1.39642" stroke-miterlimit="10"/>
<path d="M12.9844 21.3613V30.0852" stroke="#A1A1A1" stroke-width="1.39642" stroke-miterlimit="10"/>
<path d="M12.9766 19.97V16.1279" stroke="#A1A1A1" stroke-width="1.39642" stroke-miterlimit="10"/>
</g>
<defs>
<clipPath id="clip0_566_8962">
<rect width="45" height="30" fill="white"/>
</clipPath>
</defs>
</svg>
